<svg width="48" height="63" viewBox="0 0 48 63" fill="none" xmlns="http://www.w3.org/2000/svg">
<path d="M23.9025 47.7678C37.1034 47.7678 47.8049 37.0746 47.8049 23.8839C47.8049 10.6932 37.1034 0 23.9025 0C10.7015 0 0 10.6932 0 23.8839C0 37.0746 10.7015 47.7678 23.9025 47.7678Z" fill="#F5B111"/>
<path d="M23.9027 62.7103L16.4286 49.7754L8.95496 36.8405H23.9027H38.8499L31.3763 49.7754L23.9027 62.7103Z" fill="#F5B111"/>
<path d="M24.0953 32.304C28.8316 32.304 32.6711 28.4675 32.6711 23.7348C32.6711 19.0022 28.8316 15.1656 24.0953 15.1656C19.3589 15.1656 15.5194 19.0022 15.5194 23.7348C15.5194 28.4675 19.3589 32.304 24.0953 32.304Z" fill="white"/>
</svg>
