<svg width="343" height="247" viewBox="0 0 343 247" fill="none" xmlns="http://www.w3.org/2000/svg">
<path d="M127.996 205.943C131.904 205.943 135.073 202.773 135.073 198.863C135.073 194.953 131.904 191.783 127.996 191.783C124.087 191.783 120.919 194.953 120.919 198.863C120.919 202.773 124.087 205.943 127.996 205.943Z" fill="#F5B111"/>
<path d="M128.844 156.804C152.954 156.804 172.499 137.251 172.499 113.13C172.499 89.01 152.954 69.4565 128.844 69.4565C104.735 69.4565 85.1899 89.01 85.1899 113.13C85.1899 137.251 104.735 156.804 128.844 156.804Z" fill="#F5B111"/>
<path d="M129.271 184.127L115.479 160.557L101.688 136.987L128.987 136.823L156.285 136.658L142.778 160.393L129.271 184.127Z" fill="#F5B111"/>
<path d="M129.195 128.525C137.845 128.525 144.857 121.51 144.857 112.856C144.857 104.202 137.845 97.1863 129.195 97.1863C120.544 97.1863 113.532 104.202 113.532 112.856C113.532 121.51 120.544 128.525 129.195 128.525Z" fill="white"/>
<path d="M127.834 8.22441C127.834 8.22441 118.493 5.59193 115.73 18.3594C112.968 31.1269 115.073 37.5765 115.073 37.5765L135.926 35.1415C135.926 35.1415 141.846 12.1073 127.834 8.22441Z" fill="#2F2E41"/>
<path d="M113.859 63.5234C113.859 63.5234 100.157 64.8887 102.598 70.4229C105.038 75.9571 105.038 76.4454 105.038 76.4454L117.078 97.9312L120.982 93.8619C120.982 93.8619 116.59 84.2585 116.59 81.1658C116.59 78.0731 112.034 72.7017 112.034 72.7017L120.006 72.0506L113.859 63.5234Z" fill="#FFB9B9"/>
<path d="M151.407 70.0974L155.963 80.0264C155.963 80.0264 159.379 83.4446 163.121 97.1174C166.863 110.79 167.677 110.302 167.677 110.302L161.982 111.441C161.982 111.441 155.637 96.629 153.522 95.4897C151.407 94.3503 148.804 83.9329 148.804 83.9329L141.32 74.4922L143.597 69.4463L151.407 70.0974Z" fill="#FFB9B9"/>
<path d="M145.875 58.703L152.871 71.7247C152.871 71.7247 144.086 67.6554 142.784 76.6079L134.812 70.4226C134.812 70.4226 123.748 74.0035 117.078 72.7013C117.078 72.7013 119.03 66.516 112.034 63.7489L127.816 61.7957L127.165 58.3775L128.792 55.1221L145.875 58.703Z" fill="#2F2E41"/>
<path d="M118.054 95.0011C118.054 95.0011 113.661 94.35 114.8 98.2565L117.078 106.069C117.078 106.069 114.149 114.045 118.705 112.255C123.26 110.464 126.189 99.3959 126.189 99.3959C126.189 99.3959 128.141 90.9318 126.189 90.9318C124.237 90.9318 118.054 89.6296 118.705 90.9318C119.356 92.2339 118.054 95.0011 118.054 95.0011Z" fill="#2F2E41"/>
<path d="M167.189 108.023C167.189 108.023 161.494 106.558 160.193 108.836C158.891 111.115 159.217 118.603 159.217 118.765C159.217 118.928 161.169 120.556 161.82 120.556C162.471 120.556 166.538 127.881 172.07 125.276C177.602 122.672 167.189 108.023 167.189 108.023Z" fill="#2F2E41"/>
<path d="M132.452 22.7705C133.013 19.3098 130.664 16.0491 127.205 15.4875C123.746 14.9259 120.487 17.2761 119.925 20.7368C119.364 24.1975 121.713 27.4582 125.172 28.0198C128.631 28.5813 131.891 26.2312 132.452 22.7705Z" fill="#FFB9B9"/>
<path d="M131.395 23.0562C131.395 23.0562 132.697 29.8925 133.836 30.8692C134.975 31.8458 125.213 33.3107 125.213 33.3107C125.213 33.3107 126.677 28.5904 124.887 26.1488C123.098 23.7072 131.395 23.0562 131.395 23.0562Z" fill="#FFB9B9"/>
<path d="M148.478 61.7959C147.37 61.7959 144.549 61.3369 141.386 60.746C138.65 60.2349 135.655 59.6278 133.292 59.1362C130.762 58.6089 128.955 58.215 128.955 58.215C128.955 58.215 128.304 62.2842 126.189 61.7959C124.367 61.376 118.921 42.3464 117.449 37.0873C117.341 36.7033 117.362 36.2946 117.508 35.9235C117.654 35.5524 117.917 35.2391 118.257 35.0315L125.736 30.4625L127.653 31.1949C127.653 31.1949 130.891 28.6915 132.77 28.6411C134.649 28.5906 137.903 28.1023 137.903 28.1023C137.903 28.1023 141.645 28.4278 142.296 31.1949C142.947 33.962 143.272 51.2158 145.713 54.3084C148.153 57.4011 151.57 61.7959 148.478 61.7959Z" fill="#D0CDE1"/>
<path d="M125.701 70.911C125.701 70.911 125.701 77.259 129.931 76.2824C134.161 75.3058 130.256 69.446 130.256 69.446L125.701 70.911Z" fill="#FFB9B9"/>
<path d="M137.415 71.5621C137.415 71.5621 135.951 79.0496 132.859 77.9102C129.768 76.7708 132.859 70.0972 132.859 70.0972L137.415 71.5621Z" fill="#FFB9B9"/>
<path opacity="0.15" d="M144.248 53.8199C144.248 53.8199 142.656 57.6222 141.386 60.7458C138.65 60.2347 135.655 59.6276 133.292 59.136C133.462 58.6865 133.7 58.2659 133.998 57.8892C135.137 56.587 134.486 56.2615 134.486 56.2615C133.51 54.3082 134.324 51.7039 134.324 51.7039C132.371 46.4952 135.3 39.9844 135.3 39.9844L144.248 53.8199Z" fill="black"/>
<path d="M135.788 39.9845C135.788 39.9845 132.859 46.4953 134.812 51.704C134.812 51.704 133.998 54.3083 134.975 56.2616C134.975 56.2616 135.625 56.5871 134.486 57.8893C133.348 59.1915 132.371 63.7491 133.185 64.7257C133.998 65.7023 132.046 67.4928 132.534 68.4694C133.022 69.446 131.721 70.7482 131.721 70.7482C131.721 70.7482 136.602 71.7248 137.415 73.1898C137.415 73.1898 138.391 72.0504 137.903 70.7482C137.415 69.4461 137.74 68.9577 138.228 68.1439C138.717 67.33 140.181 65.5395 140.344 64.7257C140.506 63.9118 144.736 53.82 144.736 53.82L142.753 35.4292L135.788 39.9845Z" fill="#D0CDE1"/>
<path d="M118.867 35.4268L118.563 35.482C118.14 35.5589 117.756 35.783 117.482 36.1148C117.207 36.4466 117.058 36.8648 117.061 37.2957C117.073 38.93 117.165 41.8303 117.566 45.8441C118.217 52.355 120.494 62.1212 120.982 63.0978C121.758 64.826 122.627 66.5105 123.586 68.1437C125.05 70.5853 125.375 69.7715 125.05 70.9109C124.951 71.2247 124.944 71.5604 125.031 71.8779C125.117 72.1954 125.293 72.4813 125.538 72.7014C125.538 72.7014 128.467 69.4459 131.395 71.2364C131.604 70.7761 131.715 70.2771 131.721 69.7715C131.721 68.9576 132.209 68.1438 131.395 67.6554C130.582 67.1671 131.883 65.0511 130.582 63.9117C129.28 62.7723 129.117 62.9351 129.28 61.7957C129.356 61.021 129.244 60.2393 128.955 59.5169L118.867 35.4268Z" fill="#D0CDE1"/>
<path d="M128.561 13.5996C128.561 13.5996 125.93 20.5757 119.483 23.4714L118.431 17.2851L128.561 13.5996Z" fill="#2F2E41"/>
<path d="M132.371 21.0217C132.865 21.0217 133.266 20.2565 133.266 19.3126C133.266 18.3687 132.865 17.6035 132.371 17.6035C131.877 17.6035 131.476 18.3687 131.476 19.3126C131.476 20.2565 131.877 21.0217 132.371 21.0217Z" fill="#FFB9B9"/>
<path d="M267.986 184.365C277.367 184.365 284.971 168.841 284.971 149.692C284.971 130.542 277.367 115.019 267.986 115.019C258.605 115.019 251 130.542 251 149.692C251 168.841 258.605 184.365 267.986 184.365Z" fill="#3F3D56"/>
<path d="M266.417 206.446C273.22 165.611 266.486 124.924 266.417 124.519L265.093 124.743C265.162 125.147 271.858 165.62 265.093 206.226L266.417 206.446Z" fill="#F5B111"/>
<path d="M253.031 142.236L252.398 143.42L267.758 151.639L268.391 150.455L253.031 142.236Z" fill="#F5B111"/>
<path d="M283.968 146.353L268.611 154.577L269.244 155.761L284.602 147.537L283.968 146.353Z" fill="#F5B111"/>
<path opacity="0.34" d="M308.797 162.633C327.145 162.633 342.019 132.271 342.019 94.8165C342.019 57.3625 327.145 27 308.797 27C290.449 27 275.575 57.3625 275.575 94.8165C275.575 132.271 290.449 162.633 308.797 162.633Z" fill="#27AE60"/>
<path d="M305.097 205.716C318.385 125.954 305.231 46.4819 305.096 45.6885L303.773 45.9127C303.907 46.7042 317.022 125.962 303.773 205.496L305.097 205.716Z" fill="#F5B111"/>
<path d="M279.245 80.7997L278.612 81.9839L308.655 98.0603L309.288 96.876L279.245 80.7997Z" fill="#F5B111"/>
</svg>
