<svg width="324" height="195" viewBox="0 0 324 195" fill="none" xmlns="http://www.w3.org/2000/svg">
<g clip-path="url(#clip0)">
<path d="M82.4894 102.789C82.4894 133.933 64.0235 144.807 41.2447 144.807C18.4659 144.807 0 133.933 0 102.789C0 71.6454 41.2447 32.0256 41.2447 32.0256C41.2447 32.0256 82.4894 71.6454 82.4894 102.789Z" fill="#B2DEC0"/>
<path d="M39.7423 140.043L40.1645 113.979L57.744 81.7332L40.2308 109.89L40.4205 98.1702L52.5365 74.8408L40.4708 95.0687L40.8125 73.9905L53.7862 55.4173L40.8661 70.676L41.0794 32.0256L39.7385 83.1915L39.8486 81.0809L26.6581 60.8373L39.6373 85.1328L38.4082 108.674L38.3715 108.049L23.1652 86.7455L38.3255 110.256L38.1717 113.2L38.1443 113.245L38.1569 113.486L35.0386 173.211H39.2048L39.7046 142.362L54.8278 118.909L39.7423 140.043Z" fill="#3F3D56"/>
<path d="M204.713 86.4501C204.713 124.498 182.154 137.782 154.325 137.782C126.497 137.782 103.938 124.498 103.938 86.4501C103.938 48.4025 154.325 0 154.325 0C154.325 0 204.713 48.4025 204.713 86.4501Z" fill="#6FCF97"/>
<path d="M152.49 131.962L153.006 100.12L174.482 60.7264L153.087 95.1249L153.319 80.8072L168.12 52.3064L153.38 77.0183L153.797 51.2674L169.647 28.5771L153.863 47.218L154.124 0L152.485 62.5082L152.62 59.9295L136.506 35.1987L152.362 64.8796L150.86 93.6388L150.816 92.8757L132.238 66.8501L150.759 95.5723L150.571 99.1689L150.538 99.2231L150.553 99.5184L146.744 172.483H151.833L152.444 134.795L170.92 106.143L152.49 131.962Z" fill="#3F3D56"/>
<path d="M100.508 175.543C143.253 175.543 177.905 174.302 177.905 172.771C177.905 171.241 143.253 170 100.508 170C57.7625 170 23.1105 171.241 23.1105 172.771C23.1105 174.302 57.7625 175.543 100.508 175.543Z" fill="#3F3D56"/>
<path d="M105.031 87.4165H95.9847V172.576H105.031V87.4165Z" fill="#2F2E41"/>
<path d="M141.971 106.817H86.4357V91.1958H141.971L158.053 99.0063L141.971 106.817Z" fill="#3F3D56"/>
<path opacity="0.1" d="M141.971 105.557H86.4357V106.817H141.971L158.053 99.0063L156.757 98.3765L141.971 105.557Z" fill="black"/>
<path d="M59.2963 127.477H114.832V111.856H59.2963L43.2137 119.666L59.2963 127.477Z" fill="#3F3D56"/>
<path opacity="0.1" d="M44.5107 119.037L43.2137 119.666L59.2963 127.477H114.832V126.217H59.2963L44.5107 119.037Z" fill="black"/>
<path d="M127.145 94.2192H117.596V103.793H127.145V94.2192Z" fill="#F5B111"/>
<path d="M79.1482 124.454C81.7851 124.454 83.9227 122.31 83.9227 119.666C83.9227 117.023 81.7851 114.879 79.1482 114.879C76.5113 114.879 74.3737 117.023 74.3737 119.666C74.3737 122.31 76.5113 124.454 79.1482 124.454Z" fill="#F5B111"/>
<path d="M100.508 101.274C102.035 101.274 103.272 100.033 103.272 98.5024C103.272 96.9718 102.035 95.731 100.508 95.731C98.9813 95.731 97.7438 96.9718 97.7438 98.5024C97.7438 100.033 98.9813 101.274 100.508 101.274Z" fill="#2F2E41"/>
<path d="M100.508 121.934C102.035 121.934 103.272 120.693 103.272 119.163C103.272 117.632 102.035 116.391 100.508 116.391C98.9813 116.391 97.7438 117.632 97.7438 119.163C97.7438 120.693 98.9813 121.934 100.508 121.934Z" fill="#2F2E41"/>
<path d="M81.9124 163.087C81.9124 168.748 78.556 170.724 74.4154 170.724C74.3195 170.724 74.2237 170.723 74.1281 170.721C73.9363 170.717 73.7463 170.708 73.5585 170.695C69.8217 170.43 66.9185 168.352 66.9185 163.087C66.9185 157.638 73.8627 150.763 74.3844 150.254L74.3853 150.253C74.4054 150.234 74.4154 150.224 74.4154 150.224C74.4154 150.224 81.9124 157.426 81.9124 163.087Z" fill="#F5B111"/>
<path d="M74.1424 169.858L76.8843 166.017L74.1355 170.28L74.1282 170.721C73.9364 170.717 73.7463 170.708 73.5586 170.695L73.8541 165.031L73.8518 164.987L73.8569 164.979L73.8847 164.444L71.129 160.17L73.8934 164.043L73.8998 164.157L74.1232 159.877L71.764 155.461L74.1519 159.126L74.3844 150.254L74.3854 150.224V150.253L74.3465 157.249L76.6952 154.476L74.3369 157.852L74.2748 161.684L76.4678 158.006L74.2657 162.247L74.231 164.377L77.4147 159.259L74.2191 165.121L74.1424 169.858Z" fill="#3F3D56"/>
</g>
<path d="M287.683 175.803C307.391 175.803 323.367 174.28 323.367 172.401C323.367 170.523 307.391 169 287.683 169C267.976 169 252 170.523 252 172.401C252 174.28 267.976 175.803 287.683 175.803Z" fill="#3F3D56"/>
<path d="M273.722 165.144C273.722 165.144 270.164 168.148 268.291 167.96C266.419 167.772 262.861 167.772 264.359 169.838C265.857 171.903 272.037 173.029 274.659 173.217C277.28 173.405 283.085 173.593 282.711 172.466C282.336 171.34 281.962 166.082 280.464 165.707C278.966 165.331 273.722 165.144 273.722 165.144Z" fill="#575A89"/>
<path d="M294.143 162.194C294.143 162.194 291.521 166.047 289.667 166.37C287.813 166.694 284.386 167.653 286.383 169.239C288.379 170.824 294.634 170.244 297.209 169.718C299.785 169.193 305.427 167.809 304.764 166.825C304.101 165.841 302.332 160.878 300.788 160.92C299.244 160.962 294.143 162.194 294.143 162.194Z" fill="#575A89"/>
<path d="M271.638 107.1C271.638 107.1 269.228 123.649 269.79 126.653C270.351 129.657 270.726 134.351 270.726 134.351C270.726 134.351 270.351 138.294 270.726 140.172C271.1 142.049 273.348 159.886 273.348 160.262C273.348 160.638 272.973 161.764 273.348 162.703C273.722 163.642 274.471 162.891 273.348 164.393C272.224 165.895 272.973 166.27 273.16 166.27C273.348 166.27 280.651 167.021 281.026 166.27C281.4 165.519 280.838 165.331 281.026 164.393C281.213 163.454 281.4 163.266 281.775 163.078C282.149 162.891 282.898 163.266 282.336 162.327C281.775 161.389 280.464 160.262 280.838 159.699C281.213 159.135 280.651 155.005 280.651 155.005C280.651 155.005 280.276 145.805 280.089 140.172C279.902 134.539 281.775 128.719 281.775 128.719C282.008 133.327 283.715 137.738 286.643 141.298C291.512 147.119 293.947 158.009 293.947 158.009C293.947 158.009 295.07 159.699 294.509 161.201C293.947 162.703 292.261 161.764 293.947 162.703C295.632 163.642 301.437 162.327 301.999 161.764C302.561 161.201 301.25 160.45 301.625 158.948C301.999 157.446 303.497 157.821 302.186 157.07C300.876 156.319 300.501 156.507 300.501 155.756C300.501 155.005 297.13 138.67 291.887 133.976L291.512 116.89C291.512 116.89 296.194 104.873 291.325 103.747C286.456 102.62 271.638 107.1 271.638 107.1Z" fill="#2F2E41"/>
<path d="M275.033 62.6279C275.033 62.6279 278.217 70.5138 277.467 71.6403C276.718 72.7669 286.643 67.8852 286.643 67.8852C286.643 67.8852 283.46 59.9993 283.46 59.0606C283.46 58.1218 275.033 62.6279 275.033 62.6279Z" fill="#A0616A"/>
<path d="M277.374 64.5994C281.201 64.5994 284.303 61.4891 284.303 57.6524C284.303 53.8156 281.201 50.7053 277.374 50.7053C273.547 50.7053 270.445 53.8156 270.445 57.6524C270.445 61.4891 273.547 64.5994 277.374 64.5994Z" fill="#A0616A"/>
<path d="M286.643 64.6931C286.643 64.6931 281.775 64.1299 279.34 67.134C276.906 70.1381 276.531 70.8891 276.531 70.8891C276.531 70.8891 270.726 80.277 271.85 84.971C272.123 85.3948 272.373 85.8335 272.599 86.2853C272.973 87.0363 272.973 97.5507 272.599 99.2405C272.224 100.93 271.85 101.494 272.224 103.934C272.599 106.375 269.228 110.318 273.16 111.069C277.093 111.82 280.089 111.257 281.4 109.567C282.711 107.877 281.587 106.751 285.707 106.751C289.827 106.751 292.449 103.934 292.449 103.934C292.449 103.934 290.389 101.681 291.138 101.306C291.887 100.93 291.138 99.9916 290.763 99.0528C290.389 98.114 290.389 97.363 290.951 97.363C291.512 97.363 291.138 96.9874 290.763 96.0487C290.389 95.1099 297.318 78.9627 293.198 74.2688C289.078 69.5748 287.018 66.9462 287.018 66.9462C287.018 66.9462 287.767 64.1299 286.643 64.6931Z" fill="#F5B111"/>
<path d="M275.969 82.5303V90.7916L269.977 110.694C269.977 110.694 266.044 121.021 269.977 121.021C273.909 121.021 273.699 111.164 273.699 111.164L282.149 96.2366C282.149 96.2366 285.52 84.4078 285.145 83.469C284.771 82.5303 275.969 82.5303 275.969 82.5303Z" fill="#A0616A"/>
<path d="M279.153 70.326C279.153 70.326 273.535 72.5791 275.033 78.5873C276.531 84.5956 275.033 84.4078 275.033 84.4078C275.033 84.4078 282.711 83.6568 285.145 85.3466L285.707 83.0935C285.707 83.0935 287.954 70.1382 279.153 70.326Z" fill="#DAA019"/>
<path d="M275.008 52.437C274.576 52.5908 274.112 52.6344 273.658 52.5636C273.205 52.4929 272.776 52.3102 272.411 52.0319C271.705 51.4488 271.406 50.3728 271.821 49.5558C272.18 48.8502 272.947 48.4631 273.682 48.1745C275.304 47.5382 277.013 47.1514 278.751 47.0269C279.579 46.9679 280.449 46.9772 281.188 47.3567C281.554 47.5444 281.872 47.8154 282.234 48.0098C282.9 48.3674 283.675 48.4469 284.395 48.6771C285.132 48.918 285.808 49.3146 286.378 49.8403C286.949 50.3659 287.4 51.0082 287.701 51.7238C287.897 52.2097 288.034 52.7175 288.108 53.2362C288.324 54.6562 288.173 56.1079 287.671 57.4533C286.873 59.5842 285.199 61.4472 285.104 63.7215C284.08 62.9761 283.7 61.6307 282.878 60.6646C282.267 59.9505 281.433 59.4653 280.511 59.2881C280.256 59.2725 280.011 59.1829 279.806 59.0302C279.663 58.859 279.573 58.6494 279.548 58.4275L278.847 55.1082C278.704 54.4327 278.524 53.6962 277.97 53.2857C277.626 53.0646 277.234 52.9264 276.828 52.8821C275.861 52.7126 274.881 52.6231 273.9 52.6144" fill="#2F2E41"/>
<defs>
<clipPath id="clip0">
<rect width="245" height="195" fill="white"/>
</clipPath>
</defs>
</svg>
