<svg width="276" height="236" viewBox="0 0 276 236" fill="none" xmlns="http://www.w3.org/2000/svg">
<g clip-path="url(#clip0)">
<path opacity="0.1" d="M143.614 236.003C216.73 236.003 276.003 183.172 276.003 118.001C276.003 52.831 216.73 0 143.614 0C70.497 0 11.2244 52.831 11.2244 118.001C11.2244 183.172 70.497 236.003 143.614 236.003Z" fill="#6FCF97"/>
<path d="M221.64 83.7053C212.683 83.7053 204.093 87.2589 197.759 93.5844C191.425 99.9099 187.867 108.489 187.867 117.435C187.867 136.065 221.64 182.342 221.64 182.342C221.64 182.342 255.413 136.051 255.413 117.435C255.413 108.489 251.855 99.9099 245.521 93.5844C239.187 87.2589 230.597 83.7053 221.64 83.7053ZM221.64 134.798C218.203 134.796 214.843 133.776 211.986 131.867C209.129 129.958 206.903 127.246 205.589 124.074C204.275 120.902 203.932 117.411 204.604 114.045C205.275 110.678 206.932 107.585 209.363 105.159C211.794 102.732 214.891 101.079 218.263 100.41C221.634 99.7406 225.129 100.085 228.304 101.399C231.48 102.712 234.194 104.937 236.104 107.791C238.014 110.646 239.034 114.002 239.034 117.435C239.034 119.715 238.583 121.972 237.708 124.079C236.834 126.185 235.552 128.098 233.937 129.71C232.322 131.321 230.404 132.599 228.294 133.47C226.184 134.341 223.923 134.789 221.64 134.787V134.798Z" fill="#F5B111"/>
<path d="M22.3269 162.445C22.3269 162.445 16.3131 142.051 23.4621 127.04C26.4977 120.763 27.4129 113.672 26.0703 106.831C25.4086 103.589 24.4501 100.414 23.2067 97.3472" stroke="#535461" stroke-width="2" stroke-miterlimit="10"/>
<path d="M27.6425 87.8605C27.6425 90.3604 23.1016 97.6079 23.1016 97.6079C23.1016 97.6079 18.5607 90.3604 18.5607 87.8605C18.5196 87.241 18.6063 86.6198 18.8154 86.0351C19.0245 85.4505 19.3516 84.915 19.7763 84.4617C20.2011 84.0085 20.7145 83.6471 21.2848 83.4001C21.8551 83.1531 22.4701 83.0256 23.0917 83.0256C23.7133 83.0256 24.3282 83.1531 24.8985 83.4001C25.4688 83.6471 25.9822 84.0085 26.407 84.4617C26.8317 84.915 27.1588 85.4505 27.3679 86.0351C27.577 86.6198 27.6637 87.241 27.6226 87.8605H27.6425Z" fill="#F2994A"/>
<path d="M35.1322 101.704C33.7728 103.804 26.0249 107.426 26.0249 107.426C26.0249 107.426 26.164 98.8835 27.5262 96.7861C27.8281 96.2425 28.2387 95.7668 28.7323 95.3884C29.226 95.01 29.7923 94.7369 30.3961 94.5862C30.9999 94.4356 31.6282 94.4104 32.2421 94.5124C32.856 94.6144 33.4424 94.8413 33.9648 95.1791C34.4872 95.5168 34.9345 95.9582 35.279 96.4759C35.6234 96.9935 35.8577 97.5764 35.9671 98.1882C36.0766 98.8001 36.059 99.4278 35.9153 100.033C35.7717 100.637 35.5051 101.206 35.1322 101.704Z" fill="#F2994A"/>
<path d="M34.8058 125.371C32.5694 126.505 24.0496 125.72 24.0496 125.72C24.0496 125.72 28.4911 118.415 30.7246 117.29C31.2599 116.975 31.8543 116.773 32.4709 116.696C33.0875 116.62 33.7133 116.67 34.3096 116.845C34.9058 117.02 35.4598 117.315 35.9372 117.712C36.4146 118.109 36.8053 118.6 37.0852 119.154C37.365 119.708 37.528 120.314 37.564 120.933C37.6001 121.553 37.5085 122.173 37.2948 122.756C37.0811 123.339 36.75 123.872 36.3218 124.321C35.8937 124.771 35.3777 125.128 34.8058 125.371Z" fill="#F2994A"/>
<path d="M30.5202 143.208C28.5081 144.693 19.9797 145.365 19.9797 145.365C19.9797 145.365 23.1215 137.428 25.1308 135.932C25.6052 135.533 26.1565 135.235 26.7507 135.057C27.3449 134.878 27.9693 134.824 28.5855 134.896C29.2016 134.968 29.7964 135.166 30.3332 135.476C30.8699 135.787 31.3373 136.204 31.7064 136.702C32.0754 137.2 32.3384 137.768 32.4791 138.372C32.6198 138.975 32.6351 139.601 32.5243 140.211C32.4134 140.82 32.1786 141.401 31.8344 141.916C31.4902 142.432 31.0439 142.871 30.5231 143.208H30.5202Z" fill="#F2994A"/>
<path d="M16.5088 107.911C18.3053 109.654 26.6662 111.457 26.6662 111.457C26.6662 111.457 24.6199 103.161 22.8234 101.42C21.9456 100.675 20.817 100.291 19.6663 100.346C18.5156 100.401 17.4287 100.89 16.6259 101.716C15.8231 102.541 15.3644 103.64 15.3426 104.79C15.3209 105.941 15.7377 107.056 16.5088 107.911Z" fill="#F2994A"/>
<path d="M11.7666 128.843C14.0001 129.977 22.5199 129.192 22.5199 129.192C22.5199 129.192 18.0812 121.887 15.8449 120.762C14.7842 120.315 13.5932 120.287 12.5128 120.684C11.4324 121.081 10.5432 121.873 10.025 122.899C9.5069 123.926 9.39853 125.111 9.72184 126.214C10.0452 127.318 10.776 128.257 11.7666 128.843Z" fill="#F2994A"/>
<path d="M9.95022 149.823C11.9624 151.308 20.4907 151.98 20.4907 151.98C20.4907 151.98 17.349 144.044 15.3368 142.544C14.8619 142.148 14.3109 141.853 13.7176 141.678C13.1244 141.502 12.5014 141.449 11.887 141.522C11.2726 141.596 10.6797 141.794 10.1447 142.104C9.60964 142.415 9.14381 142.831 8.77577 143.328C8.40772 143.825 8.14523 144.391 8.00441 144.993C7.86358 145.595 7.8474 146.219 7.95685 146.827C8.0663 147.436 8.29908 148.015 8.64089 148.53C8.9827 149.045 9.42632 149.485 9.94454 149.823H9.95022Z" fill="#F2994A"/>
<path opacity="0.1" d="M146.361 200.241C190.874 200.241 226.958 194.431 226.958 187.263C226.958 180.095 190.874 174.284 146.361 174.284C101.848 174.284 65.7632 180.095 65.7632 187.263C65.7632 194.431 101.848 200.241 146.361 200.241Z" fill="#F2994A"/>
<path d="M69.3391 212.812C69.3391 212.812 77.2856 211.224 79.4085 209.107C81.5314 206.99 91.0672 203.288 92.1258 205.933C93.1844 208.577 106.435 217.576 97.4244 219.164C88.4136 220.751 76.2299 221.281 73.5848 220.224C70.9398 219.166 69.3391 212.812 69.3391 212.812Z" fill="#A8A8A8"/>
<path opacity="0.2" d="M97.4159 218.18C88.408 219.767 76.2214 220.298 73.5763 219.24C71.5585 218.432 70.1565 214.561 69.6031 212.758C69.4356 212.795 69.3363 212.812 69.3363 212.812C69.3363 212.812 70.9284 219.164 73.5763 220.224C76.2242 221.284 88.4136 220.751 97.4159 219.164C100.018 218.705 100.762 217.63 100.481 216.267C100.268 217.157 99.36 217.84 97.4159 218.18Z" fill="black"/>
<path d="M206.036 185.925C206.036 185.925 213.983 184.337 216.106 182.22C218.229 180.103 227.762 176.39 228.817 179.046C229.873 181.701 243.124 190.689 234.116 192.276C225.108 193.864 212.919 194.394 210.277 193.334C207.634 192.274 206.036 185.925 206.036 185.925Z" fill="#A8A8A8"/>
<path opacity="0.2" d="M234.122 191.293C225.114 192.88 212.924 193.41 210.282 192.35C208.264 191.545 206.877 187.674 206.309 185.871L206.045 185.925C206.045 185.925 207.634 192.277 210.285 193.334C212.936 194.391 225.122 193.864 234.125 192.277C236.724 191.817 237.468 190.74 237.19 189.38C236.963 190.278 236.057 190.953 234.122 191.293Z" fill="black"/>
<path d="M192.774 214.906C192.774 214.906 194.332 216.942 192.053 220.008C189.775 223.075 187.896 225.677 188.648 227.593C188.648 227.593 192.085 221.885 194.892 221.803C197.698 221.72 195.859 218.339 192.774 214.906Z" fill="#F2994A"/>
<path opacity="0.1" d="M192.774 214.906C192.91 215.103 193.017 215.318 193.092 215.544C195.822 218.747 197.275 221.737 194.653 221.811C192.207 221.882 189.275 226.247 188.571 227.349C188.595 227.435 188.624 227.519 188.656 227.602C188.656 227.602 192.093 221.893 194.9 221.811C197.707 221.729 195.859 218.339 192.774 214.906Z" fill="black"/>
<path d="M195.681 217.489C195.681 218.206 195.598 218.787 195.499 218.787C195.4 218.787 195.32 218.22 195.32 217.489C195.32 216.757 195.419 217.109 195.519 217.109C195.618 217.109 195.681 216.783 195.681 217.489Z" fill="#FFD037"/>
<path d="M196.674 218.356C196.044 218.699 195.496 218.906 195.448 218.818C195.399 218.73 195.873 218.384 196.503 218.041C197.134 217.698 196.884 217.948 196.932 218.041C196.98 218.135 197.315 218.013 196.674 218.356Z" fill="#FFD037"/>
<path d="M184.544 214.906C184.544 214.906 182.986 216.942 185.262 220.008C187.538 223.075 189.42 225.677 188.668 227.593C188.668 227.593 185.228 221.885 182.424 221.803C179.62 221.72 181.468 218.339 184.544 214.906Z" fill="#F2994A"/>
<path opacity="0.1" d="M184.544 214.906C184.407 215.102 184.3 215.317 184.226 215.544C181.496 218.747 180.04 221.737 182.665 221.811C185.109 221.882 188.057 226.247 188.744 227.349C188.721 227.435 188.694 227.519 188.662 227.602C188.662 227.602 185.222 221.893 182.418 221.811C179.614 221.729 181.467 218.339 184.544 214.906Z" fill="black"/>
<path d="M181.649 217.489C181.649 218.206 181.729 218.787 181.828 218.787C181.927 218.787 182.007 218.22 182.007 217.489C182.007 216.757 181.907 217.109 181.808 217.109C181.709 217.109 181.649 216.783 181.649 217.489Z" fill="#FFD037"/>
<path d="M180.653 218.356C181.283 218.699 181.834 218.906 181.882 218.818C181.93 218.73 181.456 218.384 180.826 218.041C180.196 217.698 180.443 217.948 180.398 218.041C180.352 218.135 180.023 218.013 180.653 218.356Z" fill="#FFD037"/>
<path d="M182.146 227.335C182.146 227.335 186.505 227.202 187.822 226.267C189.139 225.331 194.528 224.217 194.855 225.7C195.181 227.182 201.405 233.154 196.484 233.194C191.562 233.234 185.049 232.426 183.738 231.629C182.427 230.833 182.146 227.335 182.146 227.335Z" fill="#A8A8A8"/>
<path opacity="0.2" d="M196.566 232.687C191.645 232.723 185.131 231.918 183.82 231.122C182.821 230.515 182.424 228.336 182.29 227.33H182.146C182.146 227.33 182.43 230.841 183.732 231.638C185.035 232.434 191.557 233.242 196.478 233.202C197.897 233.188 198.388 232.684 198.362 231.938C198.166 232.395 197.624 232.678 196.566 232.687Z" fill="black"/>
<path d="M4.74809 163.698C3.30156 166.509 2.62596 169.652 2.78996 172.808C2.95396 175.965 3.95171 179.021 5.68181 181.668C6.24942 182.518 6.77162 183.127 7.18881 183.292C9.17544 184.077 13.197 186.007 13.197 186.007L22.8463 182.22C22.8463 182.22 24.4129 173.944 25.8944 166.838C26.9047 161.991 27.881 157.691 28.2812 156.938C29.2802 155.081 28.2812 134.869 28.2812 134.869C28.2812 134.869 18.6318 134.223 15.9782 141.652L14.8175 143.919L4.74809 163.698Z" fill="#A8A8A8"/>
<path opacity="0.1" d="M17.559 165.934C23.4252 172.648 25.9 166.841 25.9 166.841C26.9103 161.994 27.8866 157.694 28.2868 156.94C29.2858 155.084 28.2868 134.872 28.2868 134.872C28.2868 134.872 18.6374 134.225 15.9838 141.654L14.8231 143.922C14.0795 149.866 13.3445 161.11 17.559 165.934Z" fill="white"/>
<path d="M18.8474 184.649L52.904 180.721L58.9831 140.787L54.3854 130.419C52.4449 126.001 49.7568 121.95 46.4389 118.444C44.1259 116.012 41.3304 113.668 38.3902 112.491C37.9886 112.329 37.5783 112.189 37.1613 112.072C36.6821 111.927 36.1753 111.897 35.6822 111.984C35.1891 112.071 34.7235 112.273 34.3233 112.574C30.123 115.547 28.6216 128.188 28.1363 134.274C27.9367 136.774 27.5984 139.262 27.1232 141.725L18.8474 184.649Z" fill="#A8A8A8"/>
<path opacity="0.1" d="M41.5207 140.359L34.4256 157.791C38.1462 155.075 43.6521 140.288 43.6521 140.288L48.6016 157.147L44.6681 139.378C45.244 135.519 45.4114 131.61 45.1676 127.715C44.8582 123.256 40.6636 116.094 38.3875 112.491C37.9858 112.329 37.5756 112.189 37.1586 112.072C36.6794 111.927 36.1726 111.897 35.6795 111.984C35.1864 112.071 34.7208 112.273 34.3206 112.574C36.1085 116.159 40.5643 125.121 41.9407 127.789C43.6662 131.145 41.5207 140.359 41.5207 140.359Z" fill="white"/>
<path d="M47.3131 186.007H71.6323C71.6323 186.007 71.0647 162.147 67.4859 149.16C66.1549 144.341 64.6082 141.79 63.1891 140.54C62.5244 139.898 61.6649 139.494 60.7456 139.392C60.0485 139.332 59.3508 139.502 58.7589 139.874C55.3249 143.159 51.3204 160.446 51.3204 160.446L47.3131 186.007Z" fill="#A8A8A8"/>
<path opacity="0.1" d="M64.3839 170.676C65.1445 172.782 65.4453 175.211 64.3839 177.578L60.2659 179.61C60.2659 179.61 49.1975 174.922 50.5427 165.322C50.5427 165.322 50.906 163.338 54.7175 163.488C56.8611 163.593 58.9249 164.332 60.6463 165.612C62.3677 166.892 63.6688 168.655 64.3839 170.676Z" fill="white"/>
<path opacity="0.1" d="M59.9736 145.433C59.8487 142.065 61.6764 140.912 63.1891 140.526C62.5244 139.884 61.6649 139.48 60.7455 139.378C59.6928 140.258 58.9473 141.449 58.617 142.78L54.7544 161.566C54.7544 161.566 60.1893 151.076 59.9736 145.433Z" fill="white"/>
<path d="M42.4516 160.288L51.6071 172.79L53.1936 183.104L47.316 186.004L37.5872 188.147L13.197 186.004L16.3444 178.72L27.217 163.479L42.4516 160.288Z" fill="#A8A8A8"/>
<path opacity="0.1" d="M38.9095 156.005C38.9095 156.005 45.1532 156.433 42.809 167.147C40.4648 177.861 16.3442 178.72 16.3442 178.72C16.3442 178.72 21.4697 169.633 29.3538 163.151C30.2393 162.422 31.0936 161.66 31.9081 160.852C33.7301 159.035 37.1897 155.849 38.9095 156.005Z" fill="white"/>
<path opacity="0.1" d="M44.5261 164.077C44.5261 164.077 52.9892 171.764 52.1888 183.601L44.5261 164.077Z" fill="black"/>
<path opacity="0.1" d="M58.7589 139.86C58.7589 139.86 49.8815 151.651 48.8854 169.792L58.7589 139.86Z" fill="black"/>
<path opacity="0.1" d="M28.2897 134.863C28.2897 134.863 32.5978 154.35 21.8586 169.035L28.2897 134.863Z" fill="black"/>
<path d="M64.6081 185.794C63.9894 185.227 63.4133 184.547 63.2345 183.725C63.0557 182.903 63.4076 181.917 64.1938 181.616C65.0735 181.282 66.0158 181.9 66.7281 182.506C67.4405 183.113 68.2607 183.824 69.1944 183.694C68.714 183.259 68.3546 182.707 68.1511 182.092C67.9477 181.477 67.9072 180.82 68.0336 180.185C68.0742 179.923 68.1861 179.677 68.3572 179.474C68.8453 178.952 69.7336 179.19 70.3182 179.587C72.18 180.894 72.6994 183.422 72.7107 185.695C72.898 184.876 72.7391 184.02 72.7448 183.178C72.7505 182.336 72.9803 181.404 73.6898 180.953C74.133 180.715 74.6313 180.597 75.1344 180.613C75.9716 180.585 76.9025 180.667 77.473 181.279C78.1853 182.039 78.0008 183.314 77.3821 184.15C76.7634 184.987 75.8241 185.511 74.9585 186.086C74.2654 186.5 73.6739 187.064 73.2272 187.736C73.1763 187.826 73.1336 187.921 73.0995 188.019H67.852C66.6746 187.428 65.5833 186.68 64.6081 185.794Z" fill="#F2994A"/>
<path d="M32.1409 187.413C31.5222 186.846 30.9433 186.166 30.7673 185.344C30.5913 184.522 30.9404 183.538 31.7266 183.238C32.6064 182.9 33.5486 183.521 34.2609 184.128C34.9733 184.734 35.7935 185.446 36.7272 185.315C36.2468 184.88 35.8874 184.329 35.684 183.714C35.4805 183.099 35.4401 182.442 35.5664 181.806C35.607 181.544 35.7189 181.298 35.89 181.095C36.3781 180.571 37.2664 180.795 37.8511 181.208C39.7128 182.515 40.2322 185.04 40.2435 187.314C40.4309 186.494 40.2719 185.641 40.2776 184.799C40.2833 183.958 40.5132 183.025 41.2227 182.575C41.6658 182.336 42.1641 182.219 42.6672 182.234C43.5016 182.203 44.4353 182.288 45.0058 182.898C45.7181 183.657 45.5337 184.933 44.915 185.769C44.2963 186.605 43.3569 187.129 42.4913 187.708C41.7978 188.121 41.2062 188.685 40.7601 189.357C40.7087 189.447 40.6659 189.542 40.6324 189.641H35.3791C34.2043 189.047 33.115 188.298 32.1409 187.413Z" fill="#F2994A"/>
<path d="M1.41616 182.983C0.800301 182.416 0.221342 181.735 0.0453829 180.913C-0.130576 180.091 0.218503 179.105 1.00464 178.805C1.88444 178.47 2.82667 179.088 3.53902 179.695C4.25137 180.301 5.07156 181.013 6.00528 180.882C5.52488 180.448 5.16543 179.897 4.96199 179.282C4.75855 178.668 4.71808 178.011 4.84452 177.376C4.88983 177.116 5.00564 176.873 5.17941 176.673C5.66755 176.152 6.55302 176.376 7.1405 176.787C9.00226 178.096 9.52162 180.622 9.53297 182.895C9.72028 182.076 9.56135 181.22 9.56703 180.378C9.57271 179.536 9.80258 178.606 10.5121 178.153C10.9543 177.915 11.4518 177.799 11.9538 177.815C12.791 177.784 13.7248 177.866 14.2952 178.479C15.0076 179.238 14.8231 180.514 14.2044 181.35C13.5857 182.186 12.6463 182.71 11.7807 183.289C11.0863 183.701 10.4945 184.265 10.0495 184.938C9.99809 185.029 9.95533 185.123 9.92179 185.222H4.66288C3.48447 184.625 2.39232 183.872 1.41616 182.983Z" fill="#F2994A"/>
<path d="M183.922 185.021C183.579 183.558 182.64 183.037 180.576 183.286C178.337 183.569 176.095 183.833 173.354 181.906C171.9 180.885 170.771 179.984 170.025 179.355L170.147 179.323C170.147 179.323 164.593 172.376 164.961 168.386C165.33 164.395 162.379 154.066 162.379 154.066C162.379 154.066 162.22 147.323 160.676 143.412C160.263 142.384 159.949 141.319 159.739 140.232C158.809 135.291 156.056 122.253 151.594 116.491L151.325 104.983V104.541L151.438 104.657C151.855 104.212 152.191 103.698 152.431 103.138C153.74 103.81 156.561 105.201 158.088 105.499C160.12 105.893 162.629 107.605 162.629 107.605C162.629 107.605 168.404 114.328 172.829 111.346C177.253 108.364 164.556 103.577 164.556 103.577C164.556 103.577 160.23 101.244 158.42 100.624C157.137 100.184 154.472 98.4469 153.027 97.4691C153.002 97.3103 152.976 97.1516 152.945 96.9901C152.094 92.6761 150.888 91.0237 151.393 88.3763C151.531 87.6948 151.742 87.0297 152.02 86.3923C153.723 82.3703 146.628 76.7865 146.628 76.7865C146.628 76.7865 141.803 72.6965 143.557 70.4431C143.557 70.4431 146.247 70.1597 143.949 67.9999C143.554 67.6286 143.145 67.2828 142.742 66.9682C142.759 66.9087 142.776 66.852 142.796 66.7924C143.272 65.3154 144.021 63.9406 145.004 62.7393C145.158 62.5494 145.322 62.3623 145.492 62.1724C147.359 61.6718 149.005 60.5619 150.167 59.0195C151.329 57.4771 151.942 55.5908 151.906 53.6607C151.86 51.557 151.034 49.5453 149.588 48.0146C149.855 47.7734 150.062 47.472 150.189 47.1353C150.317 46.7987 150.363 46.4365 150.323 46.0787C150.558 43.2727 144.916 40.4411 142.561 40.8549C141.218 41.0902 140.007 41.8129 138.661 42.0567C137.268 42.3118 135.823 42.034 134.404 42.0567C132.508 42.0786 130.653 42.6198 129.043 43.6213C128.637 43.8424 128.294 44.1634 128.047 44.5538C127.851 45.0142 127.755 45.5106 127.763 46.0107C127.366 51.1721 123.625 55.469 119.652 58.859C119.116 59.2574 118.658 59.7525 118.304 60.3187C117.901 61.0783 117.909 61.9768 117.904 62.8328C117.841 71.387 114.805 80.3692 107.917 85.5873C108.022 85.6569 108.131 85.7213 108.243 85.78L107.925 86.0295C110.164 87.4835 113.533 86.7749 115.02 84.6123C114.467 86.9781 113.507 89.2299 112.182 91.2674C112.282 91.2674 112.378 91.2674 112.466 91.2533C112.372 91.4063 112.282 91.5594 112.182 91.7096C115.296 91.6217 117.566 88.9489 119.382 86.5113C119.402 86.7494 119.414 86.9847 119.422 87.2227C119.429 89.8661 118.701 92.4594 117.319 94.714L117.603 94.6885C117.515 94.8473 117.424 95.0031 117.319 95.1562C117.77 95.1194 118.225 95.0712 118.676 95.0202C116.865 98.7049 114.024 105.422 114.024 105.422L112.951 108.056C112.38 109.456 111.549 110.736 110.502 111.828C109.353 113.03 107.903 114.484 107.281 114.872C106.174 115.561 103.461 124.475 108.371 123.032C113.281 121.59 115.142 114.688 115.142 114.688C115.293 113.557 115.732 112.483 116.417 111.57C116.789 111.051 117.101 110.491 117.348 109.901C118.708 106.904 120.234 103.984 121.92 101.157C122.892 99.5536 123.715 97.8648 124.377 96.1114C124.756 95.1178 125.24 94.1675 125.822 93.277C126.925 92.8169 127.972 92.2341 128.944 91.5395C129.77 90.9645 130.484 90.2442 131.052 89.4137C131.402 90.8083 131.827 92.183 132.324 93.5321C133.516 96.752 135.693 104.206 132.54 109.192C129.648 113.767 129.585 115.98 129.801 116.893C129.801 116.941 129.773 116.99 129.761 117.041C129.222 119.081 129.484 121.25 130.493 123.103C131.041 124.147 131.345 125.301 131.382 126.479V126.816C131.399 127.597 131.296 128.375 131.075 129.124C130.459 131.213 129.177 135.807 128.748 139.137C128.18 143.576 124.46 147.867 124.46 147.867C124.46 147.867 114.597 158.494 110.837 170.971C110.837 170.971 108.717 176.33 107.17 177.473C107.17 177.473 104.227 179.221 103.736 182.575C103.722 182.665 103.711 182.756 103.702 182.858L103.092 184.434C103.092 184.434 108.555 187.404 109.679 187.379L110.321 186.035L116.039 190.327L124.573 190.125C124.808 189.971 125.015 189.779 125.189 189.558C125.598 189.026 125.842 188.192 124.545 187.325C123.901 186.911 123.127 186.749 122.371 186.871C121.273 187.03 119.172 186.667 117.206 182.563L116.122 180.548L116.261 180.596C116.261 180.596 114.39 177.543 118.117 173.473C121.843 169.403 127.198 158.661 127.198 158.661C127.198 158.661 134.475 152.737 135.732 148.947C135.732 148.947 140.585 140.764 143.395 135.909C143.866 136.924 144.247 137.692 144.247 137.692C144.247 137.692 150.048 145.521 150.862 151.476C151.677 157.431 157.188 172.121 159.529 176.05C161.871 179.978 161.905 181.523 161.905 181.523C161.905 181.523 160.421 185.228 161.343 188.294C161.343 188.328 161.363 188.36 161.371 188.391L161.414 190.159L167.941 190.23L167.922 189.346L176.243 189.592C176.243 189.592 184.274 187.192 184.01 185.429C183.976 185.279 183.951 185.145 183.922 185.021Z" fill="url(#paint0_linear)"/>
<path d="M147.615 62.297C146.596 63.0068 145.683 63.8571 144.902 64.8225C143.951 66.0022 143.228 67.3476 142.768 68.7907C142.377 69.954 142.185 71.1747 142.2 72.4017L138 68.819L132.594 70.0293C133.723 68.9554 134.698 67.7307 135.491 66.3899C136.203 65.1865 136.774 63.9055 137.194 62.572C137.477 61.7106 137.677 60.8241 137.79 59.9247C137.79 59.9247 153.391 58.2552 147.615 62.297Z" fill="#EFB4B6"/>
<path d="M125.774 189.241C125.606 189.46 125.405 189.651 125.178 189.808L116.925 190.001L111.391 185.789L110.769 187.107C109.685 187.129 104.4 184.216 104.4 184.216L105.016 182.682C105.016 182.592 105.036 182.501 105.047 182.399C105.521 179.094 108.368 177.379 108.368 177.379L109.444 176.92L116.002 178.504L118.049 182.362C119.953 186.387 121.985 186.747 123.046 186.588C123.779 186.47 124.529 186.63 125.149 187.036C126.404 187.9 126.168 188.72 125.774 189.241Z" fill="#565388"/>
<path d="M182.668 185.205C182.926 186.937 175.156 189.289 175.156 189.289L167.107 189.043L167.13 189.91L160.824 189.842L160.784 188.104C160.784 188.073 160.764 188.042 160.755 188.011C159.873 185.012 161.278 181.364 161.278 181.364L161.902 180.265L168.163 178.374C169.492 179.587 170.898 180.714 172.372 181.747C175.022 183.64 177.196 183.371 179.359 183.105C181.345 182.858 182.262 183.374 182.591 184.805C182.623 184.941 182.645 185.069 182.668 185.205Z" fill="#565388"/>
<path d="M145.155 133.336C144.948 133.778 144.264 135.008 143.361 136.601C140.659 141.368 135.982 149.398 135.982 149.398C134.765 153.117 127.729 158.924 127.729 158.924C127.729 158.924 122.541 169.466 118.931 173.456C115.321 177.447 117.14 180.443 117.14 180.443L108.374 177.393C109.869 176.274 111.921 171.016 111.921 171.016C115.545 158.774 125.081 148.341 125.081 148.341C125.081 148.341 128.677 144.132 129.228 139.778C129.639 136.51 130.879 132.001 131.475 129.954C131.686 129.217 131.782 128.452 131.759 127.687V127.355C131.725 126.202 131.434 125.071 130.908 124.044C129.931 122.22 129.68 120.094 130.204 118.092C130.377 117.38 130.665 116.7 131.055 116.08L133.198 115.456L140.77 113.245C140.77 113.245 141.238 114.895 141.871 117.248C143.35 122.752 145.734 132.108 145.155 133.336Z" fill="#7679B4"/>
<path opacity="0.1" d="M145.004 133.08C144.797 133.523 144.116 134.753 143.211 136.346C140.509 141.113 135.818 149.143 135.818 149.143C134.594 152.865 127.565 158.669 127.565 158.669C127.565 158.669 122.379 169.21 118.767 173.201C115.154 177.192 116.999 180.188 116.999 180.188L108.235 177.138C109.727 176.019 111.779 170.761 111.779 170.761C115.404 158.519 124.939 148.086 124.939 148.086C124.939 148.086 128.521 143.885 129.072 139.543C129.483 136.275 130.723 131.765 131.319 129.719C131.529 128.982 131.624 128.217 131.603 127.451V127.12C131.57 125.966 131.279 124.834 130.752 123.806C129.775 121.981 129.524 119.856 130.048 117.854C130.223 117.142 130.511 116.461 130.899 115.839L133.042 115.218L140.614 113.007C140.614 113.007 141.085 114.654 141.715 117.009C143.202 122.497 145.583 131.853 145.004 133.08Z" fill="black"/>
<path d="M169.27 179.224L161.272 181.364C161.272 181.364 161.235 179.848 158.973 175.993C156.711 172.138 151.37 157.72 150.581 151.878C149.792 146.036 144.178 138.352 144.178 138.352C144.178 138.352 143.809 137.598 143.355 136.601C142.935 135.68 142.447 134.554 142.112 133.625C141.414 131.689 138.307 128.939 138.307 128.939C132.616 125.788 131.495 122.012 131.43 119.654C131.397 118.881 131.499 118.107 131.734 117.369L133.192 115.462L135.951 111.845L145.28 101.86L150.956 103.027L151.299 117.565C155.616 123.208 158.281 136.017 159.169 140.864C159.37 141.93 159.673 142.974 160.074 143.982C161.57 147.822 161.726 154.438 161.726 154.438C161.726 154.438 164.564 164.573 164.229 168.488C163.894 172.402 169.27 179.224 169.27 179.224Z" fill="#7679B4"/>
<path d="M151.719 98.2344C151.719 98.2344 156.141 101.389 157.895 101.998C159.649 102.608 163.826 104.898 163.826 104.898C163.826 104.898 176.109 109.603 171.83 112.525C167.55 115.448 161.964 108.841 161.964 108.841C161.964 108.841 159.532 107.16 157.568 106.772C155.604 106.383 151.424 104.113 151.424 104.113L151.719 98.2344Z" fill="#EFB4B6"/>
<path opacity="0.1" d="M147.615 62.297C146.596 63.0068 145.683 63.8571 144.902 64.8225C144.385 64.9295 143.86 64.9903 143.333 65.0039C140.943 65.0606 139.706 62.4529 138.128 60.8912C138.624 59.3153 137.781 59.9247 137.781 59.9247C137.781 59.9247 153.391 58.2552 147.615 62.297Z" fill="black"/>
<path d="M143.126 64.5703C147.806 64.5703 151.6 60.7811 151.6 56.1068C151.6 51.4325 147.806 47.6433 143.126 47.6433C138.445 47.6433 134.651 51.4325 134.651 56.1068C134.651 60.7811 138.445 64.5703 143.126 64.5703Z" fill="#EFB4B6"/>
<path opacity="0.1" d="M142.203 72.4102L138 68.819L132.594 70.0293C133.723 68.9555 134.698 67.7307 135.491 66.3899H135.528C137.341 66.0457 139.218 66.4045 140.776 67.3933C141.471 67.8263 142.14 68.2995 142.779 68.8105C142.387 69.9697 142.192 71.1865 142.203 72.4102Z" fill="black"/>
<path opacity="0.1" d="M150.961 103.027L151.038 106.273C150.385 105.618 147.124 102.529 148.013 107.004C149 111.976 143.216 115.584 143.216 115.584C142.762 116.204 142.314 116.76 141.871 117.253C137.285 122.33 133.221 120.782 131.436 119.654C131.091 119.441 130.768 119.195 130.471 118.92C130.299 118.679 130.2 118.393 130.187 118.098C130.36 117.386 130.648 116.706 131.038 116.085L133.181 115.462L135.94 111.845L145.268 101.86L150.961 103.027Z" fill="black"/>
<path d="M151.14 105.955C151.14 105.955 147.016 101.602 148.018 106.57C149.02 111.539 143.219 115.15 143.219 115.15C136.482 124.424 130.474 118.486 130.474 118.486C130.474 118.486 128.913 116.786 132.892 110.397C135.94 105.508 133.834 98.192 132.679 95.0317C132.183 93.6656 131.761 92.2738 131.416 90.8623L131.132 89.7285L130.482 87.0755C129.716 83.979 129.476 80.776 129.773 77.6001C129.967 75.477 130.411 73.384 131.095 71.3645C131.532 70.072 132.023 68.9609 132.551 68.2977C133.308 67.3926 134.366 66.7891 135.531 66.597C137.344 66.2508 139.221 66.6087 140.778 67.5976C141.895 68.2871 142.941 69.0856 143.9 69.9813C146.125 72.0986 143.523 72.3764 143.523 72.3764C141.837 74.5872 146.494 78.612 146.494 78.612C146.494 78.612 153.359 84.0937 151.713 88.0392C150.067 91.9847 151.62 93.2517 152.61 98.4386C153.601 103.626 151.14 105.955 151.14 105.955Z" fill="#565388"/>
<path opacity="0.1" d="M142.564 43.7743C141.264 44.0067 140.089 44.7153 138.792 44.9562C137.441 45.2028 136.056 44.9335 134.685 44.9562C132.848 44.9768 131.052 45.5078 129.5 46.4896C129.106 46.7087 128.774 47.0236 128.535 47.4051C128.343 47.8528 128.247 48.3354 128.251 48.8223C127.868 53.8874 124.252 58.0993 120.41 61.4269C119.891 61.8143 119.449 62.2949 119.107 62.8441C118.715 63.5895 118.727 64.4682 118.721 65.31C118.662 73.7026 115.73 82.5176 109.072 87.6336C111.322 89.116 114.748 88.3139 116.102 85.9869C115.606 88.5513 114.628 90.9988 113.221 93.2004C116.19 93.138 118.378 90.5162 120.137 88.1268C120.385 91.092 119.69 94.0598 118.151 96.6073C122.124 96.2644 126.182 95.4084 129.395 93.0615C130.868 91.9873 132.202 90.4227 132.171 88.603C132.154 87.5628 131.688 86.5878 131.356 85.5985C130.491 83.0249 130.698 79.7795 132.843 78.1101C133.248 77.8469 133.627 77.5481 133.978 77.2173C134.469 76.6674 134.643 75.9078 134.742 75.1793C134.985 73.4002 134.896 71.5915 134.478 69.845C134.365 69.4776 134.307 69.0956 134.305 68.7112C134.353 67.9091 134.958 67.2374 135.644 66.8235C136.331 66.4097 137.115 66.183 137.844 65.84C139.094 65.2268 140.151 64.2801 140.896 63.1045C141.641 61.929 142.047 60.5704 142.067 59.1792C142.067 58.3657 141.962 57.4587 142.476 56.8323C143.239 55.9026 144.828 56.2201 145.742 55.4378C146.608 54.698 146.511 53.3205 147.116 52.354C147.612 51.5603 148.535 51.138 149.207 50.5003C152.579 47.3768 145.291 43.2896 142.564 43.7743Z" fill="black"/>
<path opacity="0.1" d="M141.848 75.8369V75.8907L136.496 83.1383L133.212 87.5855C133.212 87.5855 132.321 88.4358 131.123 89.7141L130.473 87.0611C129.708 83.9645 129.468 80.7616 129.764 77.5857C131.004 75.1141 132.338 73.456 133.587 72.3449C134.289 71.7229 135.153 71.3123 136.08 71.1606C137.006 71.0089 137.956 71.1223 138.821 71.4877C139.685 71.8531 140.428 72.4555 140.964 73.2252C141.5 73.9949 141.806 74.9004 141.848 75.8369Z" fill="black"/>
<path d="M142.541 43.3407C141.241 43.5731 140.066 44.2817 138.769 44.5198C137.421 44.7692 136.036 44.4971 134.662 44.5198C132.829 44.5397 131.037 45.0676 129.486 46.0447C129.092 46.2638 128.76 46.5787 128.521 46.9602C128.329 47.4079 128.233 47.8905 128.237 48.3774C127.857 53.4425 124.238 57.6544 120.396 60.982C119.878 61.3702 119.436 61.8507 119.093 62.3992C118.704 63.1418 118.713 64.0233 118.707 64.8651C118.65 73.2577 115.716 82.0727 109.058 87.1887C111.305 88.6711 114.734 87.8662 116.085 85.542C115.593 88.113 114.617 90.5675 113.21 92.7753C116.178 92.713 118.366 90.0883 120.126 87.6989C120.371 90.6638 119.674 93.6304 118.134 96.1766C122.107 95.8336 126.165 94.9776 129.381 92.6308C130.851 91.5565 132.188 89.992 132.156 88.1723C132.137 87.1321 131.674 86.157 131.342 85.1678C130.474 82.5942 130.681 79.3488 132.826 77.6794C133.231 77.4153 133.611 77.1155 133.961 76.7837C134.452 76.2366 134.626 75.477 134.725 74.7486C134.966 72.9683 134.875 71.1589 134.458 69.4114C134.346 69.044 134.288 68.6619 134.288 68.2777C134.336 67.4755 134.938 66.8038 135.625 66.39C136.311 65.9762 137.098 65.7494 137.824 65.4064C139.074 64.7964 140.132 63.853 140.879 62.6806C141.626 61.5081 142.034 60.1522 142.058 58.7626C142.058 57.9492 141.951 57.0421 142.467 56.4129C143.231 55.4861 144.817 55.8035 145.731 55.0212C146.599 54.2815 146.5 52.9039 147.104 51.9374C147.601 51.1438 148.524 50.7215 149.199 50.0837C152.568 46.9404 145.28 42.856 142.541 43.3407Z" fill="#A66477"/>
<path d="M141.406 75.4147V75.4686L136.05 82.7246L132.769 87.1746C132.769 87.1746 126.602 92.9625 124.971 97.5599C124.332 99.2755 123.54 100.93 122.604 102.503C120.973 105.278 119.498 108.142 118.185 111.08C117.947 111.657 117.646 112.206 117.285 112.715C116.621 113.618 116.197 114.674 116.053 115.785C116.053 115.785 114.254 122.556 109.506 123.968C104.758 125.379 107.377 116.638 108.45 115.961C109.052 115.581 110.451 114.155 111.572 112.976C112.588 111.902 113.392 110.646 113.942 109.274L114.978 106.692C114.978 106.692 119.916 94.8558 120.77 94.1841C121.019 93.9698 121.231 93.7148 121.395 93.4301C122.079 92.3191 122.774 91.2108 123.489 90.1196C124.428 88.6854 125.916 85.8255 128.047 80.1227C128.197 79.7202 128.348 79.3375 128.504 78.9662C129.963 75.4743 131.626 73.2974 133.153 71.9313C133.855 71.3122 134.717 70.9039 135.642 70.7533C136.566 70.6026 137.514 70.7159 138.376 71.08C139.239 71.4441 139.981 72.0441 140.517 72.8111C141.053 73.578 141.361 74.4806 141.406 75.4147Z" fill="#EFB4B6"/>
<path d="M141.522 75.3891V75.4457L136.07 82.835L128.376 79.0086C129.861 75.4514 131.552 73.2293 133.11 71.8432C133.825 71.2105 134.704 70.7926 135.646 70.6378C136.588 70.483 137.555 70.5977 138.435 70.9685C139.315 71.3394 140.072 71.9513 140.618 72.7335C141.164 73.5157 141.478 74.4364 141.522 75.3891Z" fill="#565388"/>
<path opacity="0.1" d="M134.773 69.6467C134.773 69.6467 140.554 72.124 143.392 72.2742L134.773 69.6467Z" fill="black"/>
<path opacity="0.1" d="M182.668 185.205C182.926 186.937 175.156 189.289 175.156 189.289L167.107 189.042L167.13 189.91L160.824 189.842L160.784 188.104C160.784 188.073 160.764 188.042 160.755 188.011L175.23 188.311L182.58 184.816C182.623 184.941 182.645 185.069 182.668 185.205Z" fill="black"/>
<path opacity="0.1" d="M125.774 189.241C125.606 189.46 125.405 189.651 125.178 189.808L116.925 190.001L111.39 185.789L110.769 187.107C109.685 187.13 104.4 184.216 104.4 184.216L105.016 182.682C105.016 182.592 105.036 182.501 105.047 182.399L111.487 185.233L117.016 189.227L125.774 189.241Z" fill="black"/>
<path opacity="0.1" d="M131.41 117.27C131.41 117.27 134.515 110.686 137.716 108.648L131.41 117.27Z" fill="black"/>
<path opacity="0.1" d="M143.761 87.8945C143.761 87.8945 145.58 91.2788 151.092 89.9807L143.761 87.8945Z" fill="black"/>
<path opacity="0.1" d="M107.122 29.9255H105.34C105.66 29.9102 105.963 29.7723 106.184 29.5403C106.405 29.3084 106.529 29.0002 106.529 28.6798C106.529 28.3593 106.405 28.0511 106.184 27.8192C105.963 27.5872 105.66 27.4493 105.34 27.434H90.8884C90.7196 27.426 90.5509 27.4522 90.3926 27.5112C90.2342 27.5702 90.0895 27.6607 89.9672 27.7771C89.8449 27.8936 89.7475 28.0336 89.681 28.1888C89.6144 28.3439 89.5801 28.511 89.5801 28.6798C89.5801 28.8485 89.6144 29.0156 89.681 29.1707C89.7475 29.3259 89.8449 29.4659 89.9672 29.5824C90.0895 29.6988 90.2342 29.7893 90.3926 29.8483C90.5509 29.9073 90.7196 29.9335 90.8884 29.9255H92.6707C92.5067 29.9255 92.3443 29.9577 92.1928 30.0204C92.0413 30.0831 91.9037 30.1749 91.7877 30.2907C91.6717 30.4066 91.5798 30.544 91.517 30.6953C91.4543 30.8467 91.422 31.0088 91.422 31.1726C91.422 31.3364 91.4543 31.4985 91.517 31.6499C91.5798 31.8012 91.6717 31.9387 91.7877 32.0545C91.9037 32.1703 92.0413 32.2621 92.1928 32.3248C92.3443 32.3875 92.5067 32.4197 92.6707 32.4197H90.176C90.0072 32.4117 89.8386 32.438 89.6802 32.4969C89.5219 32.5559 89.3772 32.6464 89.2548 32.7628C89.1325 32.8793 89.0352 33.0193 88.9686 33.1745C88.9021 33.3296 88.8678 33.4967 88.8678 33.6655C88.8678 33.8342 88.9021 34.0013 88.9686 34.1564C89.0352 34.3116 89.1325 34.4516 89.2548 34.5681C89.3772 34.6845 89.5219 34.775 89.6802 34.834C89.8386 34.893 90.0072 34.9192 90.176 34.9112H104.625C104.793 34.9192 104.962 34.893 105.12 34.834C105.279 34.775 105.423 34.6845 105.546 34.5681C105.668 34.4516 105.765 34.3116 105.832 34.1564C105.899 34.0013 105.933 33.8342 105.933 33.6655C105.933 33.4967 105.899 33.3296 105.832 33.1745C105.765 33.0193 105.668 32.8793 105.546 32.7628C105.423 32.6464 105.279 32.5559 105.12 32.4969C104.962 32.438 104.793 32.4117 104.625 32.4197H107.122C107.453 32.4197 107.771 32.2883 108.005 32.0545C108.239 31.8206 108.371 31.5034 108.371 31.1726C108.371 30.8418 108.239 30.5246 108.005 30.2907C107.771 30.0569 107.453 29.9255 107.122 29.9255Z" fill="#F2994A"/>
<path opacity="0.1" d="M239.823 73.1671H238.041C238.372 73.1671 238.69 73.0357 238.924 72.8018C239.158 72.568 239.29 72.2507 239.29 71.92C239.29 71.5892 239.158 71.272 238.924 71.0381C238.69 70.8042 238.372 70.6729 238.041 70.6729H223.601C223.27 70.6729 222.952 70.8042 222.718 71.0381C222.484 71.272 222.352 71.5892 222.352 71.92C222.352 72.2507 222.484 72.568 222.718 72.8018C222.952 73.0357 223.27 73.1671 223.601 73.1671H225.383C225.215 73.1591 225.046 73.1853 224.888 73.2443C224.729 73.3033 224.585 73.3937 224.462 73.5102C224.34 73.6267 224.243 73.7667 224.176 73.9219C224.11 74.077 224.075 74.2441 224.075 74.4128C224.075 74.5816 224.11 74.7486 224.176 74.9038C224.243 75.0589 224.34 75.199 224.462 75.3155C224.585 75.4319 224.729 75.5224 224.888 75.5814C225.046 75.6403 225.215 75.6666 225.383 75.6585H222.889C222.72 75.6505 222.551 75.6768 222.393 75.7357C222.235 75.7947 222.09 75.8852 221.968 76.0016C221.845 76.1181 221.748 76.2582 221.681 76.4133C221.615 76.5685 221.581 76.7355 221.581 76.9043C221.581 77.073 221.615 77.2401 221.681 77.3952C221.748 77.5504 221.845 77.6904 221.968 77.8069C222.09 77.9234 222.235 78.0138 222.393 78.0728C222.551 78.1318 222.72 78.158 222.889 78.15H237.332C237.5 78.158 237.669 78.1318 237.827 78.0728C237.986 78.0138 238.131 77.9234 238.253 77.8069C238.375 77.6904 238.473 77.5504 238.539 77.3952C238.606 77.2401 238.64 77.073 238.64 76.9043C238.64 76.7355 238.606 76.5685 238.539 76.4133C238.473 76.2582 238.375 76.1181 238.253 76.0016C238.131 75.8852 237.986 75.7947 237.827 75.7357C237.669 75.6768 237.5 75.6505 237.332 75.6585H239.829C240.15 75.6433 240.452 75.5054 240.673 75.2734C240.895 75.0415 241.018 74.7333 241.018 74.4128C241.018 74.0924 240.895 73.7842 240.673 73.5522C240.452 73.3203 240.15 73.1824 239.829 73.1671H239.823Z" fill="#F2994A"/>
<path opacity="0.1" d="M80.1039 65.6898H78.3216C78.6528 65.6898 78.9704 65.5584 79.2046 65.3245C79.4388 65.0907 79.5703 64.7734 79.5703 64.4427C79.5703 64.1119 79.4388 63.7947 79.2046 63.5608C78.9704 63.3269 78.6528 63.1956 78.3216 63.1956H63.8788C63.5476 63.1956 63.2299 63.3269 62.9958 63.5608C62.7616 63.7947 62.63 64.1119 62.63 64.4427C62.63 64.7734 62.7616 65.0907 62.9958 65.3245C63.2299 65.5584 63.5476 65.6898 63.8788 65.6898H65.661C65.3405 65.7051 65.0382 65.843 64.8168 66.0749C64.5954 66.3069 64.4718 66.6151 64.4718 66.9355C64.4718 67.256 64.5954 67.5642 64.8168 67.7961C65.0382 68.0281 65.3405 68.166 65.661 68.1813H63.1664C62.9976 68.1732 62.8289 68.1995 62.6706 68.2584C62.5122 68.3174 62.3675 68.4079 62.2452 68.5243C62.1229 68.6408 62.0255 68.7809 61.959 68.936C61.8925 69.0912 61.8582 69.2582 61.8582 69.427C61.8582 69.5957 61.8925 69.7628 61.959 69.9179C62.0255 70.0731 62.1229 70.2131 62.2452 70.3296C62.3675 70.4461 62.5122 70.5365 62.6706 70.5955C62.8289 70.6545 62.9976 70.6807 63.1664 70.6727H77.6064C77.9269 70.6574 78.2292 70.5195 78.4507 70.2876C78.6721 70.0556 78.7956 69.7474 78.7956 69.427C78.7956 69.1065 78.6721 68.7983 78.4507 68.5664C78.2292 68.3344 77.9269 68.1965 77.6064 68.1813H80.1039C80.2727 68.1893 80.4414 68.163 80.5997 68.1041C80.7581 68.0451 80.9028 67.9546 81.0251 67.8382C81.1474 67.7217 81.2448 67.5816 81.3113 67.4265C81.3778 67.2713 81.4121 67.1043 81.4121 66.9355C81.4121 66.7668 81.3778 66.5997 81.3113 66.4446C81.2448 66.2894 81.1474 66.1494 81.0251 66.0329C80.9028 65.9164 80.7581 65.826 80.5997 65.767C80.4414 65.708 80.2727 65.6818 80.1039 65.6898Z" fill="#F2994A"/>
</g>
<defs>
<linearGradient id="paint0_linear" x1="143.67" y1="190.792" x2="140.168" y2="40.882" gradientUnits="userSpaceOnUse">
<stop stop-color="#808080" stop-opacity="0.25"/>
<stop offset="0.54" stop-color="#808080" stop-opacity="0.12"/>
<stop offset="1" stop-color="#808080" stop-opacity="0.1"/>
</linearGradient>
<clipPath id="clip0">
<rect width="276" height="236" fill="white"/>
</clipPath>
</defs>
</svg>
