<svg width="360" height="168" viewBox="0 0 360 168" fill="none" xmlns="http://www.w3.org/2000/svg">
<g clip-path="url(#clip0)">
<path d="M39.5656 165.586L38.9358 165.443C45.9581 134.068 63.6059 105.576 88.628 85.2168C107.546 69.8482 130.045 59.5697 154.008 55.3489C177.971 51.1281 202.609 53.104 225.602 61.0905C248.596 69.0771 269.187 82.8114 285.439 101C301.69 119.189 313.067 141.235 318.497 165.06L317.868 165.204C303.002 99.6299 245.799 53.832 178.76 53.832C112.598 53.832 54.0588 100.831 39.5656 165.586Z" fill="#3F3D56"/>
<path d="M283.383 88.9258C293.065 88.9258 300.915 81.0399 300.915 71.312C300.915 61.5842 293.065 53.6982 283.383 53.6982C273.7 53.6982 265.851 61.5842 265.851 71.312C265.851 81.0399 273.7 88.9258 283.383 88.9258Z" fill="#FF6584"/>
<path d="M276.723 141.733H276.077V167.351H276.723V141.733Z" fill="#3F3D56"/>
<path d="M282.681 144.997C282.722 153.956 276.449 161.247 276.449 161.247C276.449 161.247 270.109 154.014 270.068 145.056C270.026 136.097 276.3 128.806 276.3 128.806C276.3 128.806 282.64 136.039 282.681 144.997Z" fill="#F5B111"/>
<path opacity="0.1" d="M282.681 144.997C282.722 153.956 276.449 161.247 276.449 161.247C276.449 161.247 270.109 154.014 270.068 145.056C270.026 136.097 276.3 128.806 276.3 128.806C276.3 128.806 282.64 136.039 282.681 144.997Z" fill="black"/>
<path opacity="0.4" d="M154.719 90.7977C160.29 90.7977 164.806 86.2608 164.806 80.6644C164.806 75.0679 160.29 70.531 154.719 70.531C149.149 70.531 144.633 75.0679 144.633 80.6644C144.633 86.2608 149.149 90.7977 154.719 90.7977Z" fill="#F5B111"/>
<path opacity="0.4" d="M136.052 92.6124C139.96 92.6124 143.128 89.4299 143.128 85.504C143.128 81.5781 139.96 78.3955 136.052 78.3955C132.145 78.3955 128.977 81.5781 128.977 85.504C128.977 89.4299 132.145 92.6124 136.052 92.6124Z" fill="#F5B111"/>
<path opacity="0.4" d="M60.1994 113.043C64.107 113.043 67.2748 109.86 67.2748 105.934C67.2748 102.008 64.107 98.8257 60.1994 98.8257C56.2918 98.8257 53.124 102.008 53.124 105.934C53.124 109.86 56.2918 113.043 60.1994 113.043Z" fill="#F5B111"/>
<path opacity="0.4" d="M269.4 89.964C274.97 89.964 279.486 85.4271 279.486 79.8306C279.486 74.2341 274.97 69.6973 269.4 69.6973C263.829 69.6973 259.314 74.2341 259.314 79.8306C259.314 85.4271 263.829 89.964 269.4 89.964Z" fill="#F5B111"/>
<path d="M11.2791 164.503C11.8259 166.534 13.6987 167.791 13.6987 167.791C13.6987 167.791 14.685 165.756 14.1383 163.726C13.5915 161.695 11.7187 160.438 11.7187 160.438C11.7187 160.438 10.7324 162.472 11.2791 164.503Z" fill="#3F3D56"/>
<path d="M12.0826 164.066C13.583 165.534 13.7663 167.789 13.7663 167.789C13.7663 167.789 11.517 167.666 10.0166 166.199C8.51628 164.731 8.33301 162.476 8.33301 162.476C8.33301 162.476 10.5823 162.599 12.0826 164.066Z" fill="#F5B111"/>
<path d="M208.82 164.503C209.367 166.534 211.24 167.791 211.24 167.791C211.24 167.791 212.226 165.756 211.679 163.726C211.133 161.695 209.26 160.438 209.26 160.438C209.26 160.438 208.273 162.472 208.82 164.503Z" fill="#3F3D56"/>
<path d="M209.623 164.066C211.124 165.534 211.307 167.789 211.307 167.789C211.307 167.789 209.058 167.666 207.557 166.199C206.057 164.731 205.874 162.476 205.874 162.476C205.874 162.476 208.123 162.599 209.623 164.066Z" fill="#F5B111"/>
<path d="M14.9933 149.239L13.658 147.003L26.1218 136.27H58.1718V139.4L46.5982 151.922L33.2439 154.605L14.9933 149.239Z" fill="#3F3D56"/>
<path d="M63.6886 142.568V135.571H59.4924V137.777L58.1716 136.269L47.4883 147.003L45.7075 148.791L43.4819 157.736L47.4883 167.575H67.9644V147.45L63.6886 142.568Z" fill="#CCCCCC"/>
<path d="M47.4884 147.003H13.658V167.575H47.4884V147.003Z" fill="#F2F2F2"/>
<path d="M42.8143 153.487H35.6921V159.748H42.8143V153.487Z" fill="#3F3D56"/>
<path d="M32.7988 153.264H26.5669V167.575H32.7988V153.264Z" fill="#CCCCCC"/>
<path d="M19.4446 155.5V153.264H16.7739V155.5H19.2219H19.4446Z" fill="#3F3D56"/>
<path d="M19.2219 157.289H16.7739V159.525H19.4446V157.289H19.2219Z" fill="#3F3D56"/>
<path d="M23.8959 153.264H21.2251V155.5H23.8959V153.264Z" fill="#3F3D56"/>
<path d="M23.8959 157.289H21.2251V159.525H23.8959V157.289Z" fill="#3F3D56"/>
<path d="M57.0587 155.724V153.487H54.3877V155.724H56.836H57.0587Z" fill="#3F3D56"/>
<path d="M56.836 157.512H54.3877V159.748H57.0587V157.512H56.836Z" fill="#3F3D56"/>
<path d="M61.5102 153.487H58.8394V155.723H61.5102V153.487Z" fill="#3F3D56"/>
<path d="M61.5102 157.512H58.8394V159.748H61.5102V157.512Z" fill="#3F3D56"/>
<path d="M143.782 149.239L142.447 147.003L154.911 136.27H186.961V139.4L175.387 151.922L162.033 154.605L143.782 149.239Z" fill="#3F3D56"/>
<path d="M192.478 142.568V135.571H188.281V137.777L186.961 136.269L176.277 147.003L174.497 148.791L172.271 157.736L176.277 167.575H196.753V147.45L192.478 142.568Z" fill="#CCCCCC"/>
<path d="M176.277 147.003H142.447V167.575H176.277V147.003Z" fill="#F2F2F2"/>
<path d="M171.603 153.487H164.481V159.748H171.603V153.487Z" fill="#3F3D56"/>
<path d="M161.588 153.264H155.356V167.575H161.588V153.264Z" fill="#CCCCCC"/>
<path d="M148.234 155.5V153.264H145.563V155.5H148.011H148.234Z" fill="#3F3D56"/>
<path d="M148.011 157.289H145.563V159.525H148.234V157.289H148.011Z" fill="#3F3D56"/>
<path d="M152.685 153.264H150.014V155.5H152.685V153.264Z" fill="#3F3D56"/>
<path d="M152.685 157.289H150.014V159.525H152.685V157.289Z" fill="#3F3D56"/>
<path d="M185.848 155.724V153.487H183.177V155.724H185.625H185.848Z" fill="#3F3D56"/>
<path d="M185.625 157.512H183.177V159.748H185.848V157.512H185.625Z" fill="#3F3D56"/>
<path d="M190.299 153.487H187.628V155.723H190.299V153.487Z" fill="#3F3D56"/>
<path d="M190.299 157.512H187.628V159.748H190.299V157.512Z" fill="#3F3D56"/>
<path d="M83.5444 111.672L81.3188 109.883L93.7827 98.7029H125.387V108.542L104.911 122.406L83.5444 111.672Z" fill="#3F3D56"/>
<path d="M131.15 104.975V98.9263H126.953V100.408L125.387 98.7029L115.149 109.883L111.143 112.567L104.931 158.163L114.299 167.575H136.071V110.331L131.15 104.975Z" fill="#CCCCCC"/>
<path d="M115.149 109.884H81.3186V167.575H115.149V109.884Z" fill="#F2F2F2"/>
<path d="M100.682 153.487H94.4502V167.575H100.682V153.487Z" fill="#CCCCCC"/>
<path d="M87.7732 157.512V155.276H85.1025V157.512H87.5508H87.7732Z" fill="#3F3D56"/>
<path d="M87.5508 159.301H85.1025V161.537H87.7732V159.301H87.5508Z" fill="#3F3D56"/>
<path d="M92.2245 155.276H89.5537V157.512H92.2245V155.276Z" fill="#3F3D56"/>
<path d="M92.2245 159.301H89.5537V161.537H92.2245V159.301Z" fill="#3F3D56"/>
<path d="M106.024 157.512V155.276H103.353V157.512H105.801H106.024Z" fill="#3F3D56"/>
<path d="M105.801 159.301H103.353V161.537H106.024V159.301H105.801Z" fill="#3F3D56"/>
<path d="M110.475 155.276H107.804V157.512H110.475V155.276Z" fill="#3F3D56"/>
<path d="M110.475 159.301H107.804V161.537H110.475V159.301Z" fill="#3F3D56"/>
<path d="M124.72 112.79V110.554H122.049V112.79H124.497H124.72Z" fill="#3F3D56"/>
<path d="M124.497 114.579H122.049V116.815H124.72V114.579H124.497Z" fill="#3F3D56"/>
<path d="M129.171 110.554H126.5V112.79H129.171V110.554Z" fill="#3F3D56"/>
<path d="M129.171 114.579H126.5V116.815H129.171V114.579Z" fill="#3F3D56"/>
<path d="M124.72 125.313V123.076H122.049V125.313H124.497H124.72Z" fill="#3F3D56"/>
<path d="M124.497 127.102H122.049V129.338H124.72V127.102H124.497Z" fill="#3F3D56"/>
<path d="M129.171 123.076H126.5V125.313H129.171V123.076Z" fill="#3F3D56"/>
<path d="M129.171 127.101H126.5V129.337H129.171V127.101Z" fill="#3F3D56"/>
<path d="M124.72 137.835V135.598H122.049V137.835H124.497H124.72Z" fill="#3F3D56"/>
<path d="M124.497 139.624H122.049V141.859H124.72V139.624H124.497Z" fill="#3F3D56"/>
<path d="M129.171 135.599H126.5V137.835H129.171V135.599Z" fill="#3F3D56"/>
<path d="M129.171 139.624H126.5V141.86H129.171V139.624Z" fill="#3F3D56"/>
<path d="M124.72 150.357V148.121H122.049V150.357H124.497H124.72Z" fill="#3F3D56"/>
<path d="M124.497 152.146H122.049V154.382H124.72V152.146H124.497Z" fill="#3F3D56"/>
<path d="M129.171 148.121H126.5V150.357H129.171V148.121Z" fill="#3F3D56"/>
<path d="M129.171 152.146H126.5V154.382H129.171V152.146Z" fill="#3F3D56"/>
<path d="M110.92 112.79H85.1023V118.157H110.92V112.79Z" fill="#3F3D56"/>
<path d="M110.92 123.524H85.1023V128.89H110.92V123.524Z" fill="#3F3D56"/>
<path d="M110.92 134.257H85.1023V139.623H110.92V134.257Z" fill="#3F3D56"/>
<path d="M110.92 144.99H85.1023V150.357H110.92V144.99Z" fill="#3F3D56"/>
<path d="M213.624 111.672L211.399 109.883L223.863 98.7029H255.467V108.542L234.991 122.406L213.624 111.672Z" fill="#3F3D56"/>
<path d="M261.23 104.975V98.9263H257.033V100.408L255.467 98.7029L245.229 109.883L241.223 112.567L235.011 158.163L244.379 167.575H266.151V110.331L261.23 104.975Z" fill="#CCCCCC"/>
<path d="M245.229 109.884H211.399V167.575H245.229V109.884Z" fill="#F2F2F2"/>
<path d="M230.762 153.487H224.53V167.575H230.762V153.487Z" fill="#CCCCCC"/>
<path d="M217.853 157.512V155.276H215.183V157.512H217.631H217.853Z" fill="#3F3D56"/>
<path d="M217.631 159.301H215.183V161.537H217.853V159.301H217.631Z" fill="#3F3D56"/>
<path d="M222.305 155.276H219.634V157.512H222.305V155.276Z" fill="#3F3D56"/>
<path d="M222.305 159.301H219.634V161.537H222.305V159.301Z" fill="#3F3D56"/>
<path d="M236.104 157.512V155.276H233.433V157.512H235.881H236.104Z" fill="#3F3D56"/>
<path d="M235.881 159.301H233.433V161.537H236.104V159.301H235.881Z" fill="#3F3D56"/>
<path d="M240.555 155.276H237.884V157.512H240.555V155.276Z" fill="#3F3D56"/>
<path d="M240.555 159.301H237.884V161.537H240.555V159.301Z" fill="#3F3D56"/>
<path d="M254.8 112.79V110.554H252.129V112.79H254.577H254.8Z" fill="#3F3D56"/>
<path d="M254.577 114.579H252.129V116.815H254.8V114.579H254.577Z" fill="#3F3D56"/>
<path d="M259.251 110.554H256.58V112.79H259.251V110.554Z" fill="#3F3D56"/>
<path d="M259.251 114.579H256.58V116.815H259.251V114.579Z" fill="#3F3D56"/>
<path d="M254.8 125.313V123.076H252.129V125.313H254.577H254.8Z" fill="#3F3D56"/>
<path d="M254.577 127.102H252.129V129.338H254.8V127.102H254.577Z" fill="#3F3D56"/>
<path d="M259.251 123.076H256.58V125.313H259.251V123.076Z" fill="#3F3D56"/>
<path d="M259.251 127.101H256.58V129.337H259.251V127.101Z" fill="#3F3D56"/>
<path d="M254.8 137.835V135.598H252.129V137.835H254.577H254.8Z" fill="#3F3D56"/>
<path d="M254.577 139.624H252.129V141.859H254.8V139.624H254.577Z" fill="#3F3D56"/>
<path d="M259.251 135.599H256.58V137.835H259.251V135.599Z" fill="#3F3D56"/>
<path d="M259.251 139.624H256.58V141.86H259.251V139.624Z" fill="#3F3D56"/>
<path d="M254.8 150.357V148.121H252.129V150.357H254.577H254.8Z" fill="#3F3D56"/>
<path d="M254.577 152.146H252.129V154.382H254.8V152.146H254.577Z" fill="#3F3D56"/>
<path d="M259.251 148.121H256.58V150.357H259.251V148.121Z" fill="#3F3D56"/>
<path d="M259.251 152.146H256.58V154.382H259.251V152.146Z" fill="#3F3D56"/>
<path d="M241 112.79H215.182V118.157H241V112.79Z" fill="#3F3D56"/>
<path d="M241 123.524H215.182V128.89H241V123.524Z" fill="#3F3D56"/>
<path d="M241 134.257H215.182V139.623H241V134.257Z" fill="#3F3D56"/>
<path d="M241 144.99H215.182V150.357H241V144.99Z" fill="#3F3D56"/>
<path d="M284.959 111.672L282.733 109.883L295.197 98.7029H326.802V108.542L306.325 122.406L284.959 111.672Z" fill="#3F3D56"/>
<path d="M332.564 104.975V98.9263H328.368V100.408L326.802 98.7029L316.563 109.883L312.557 112.567L306.345 158.163L315.713 167.575H337.485V110.331L332.564 104.975Z" fill="#CCCCCC"/>
<path d="M316.563 109.884H282.733V167.575H316.563V109.884Z" fill="#F2F2F2"/>
<path d="M302.096 153.487H295.865V167.575H302.096V153.487Z" fill="#CCCCCC"/>
<path d="M289.187 157.512V155.276H286.517V157.512H288.965H289.187Z" fill="#3F3D56"/>
<path d="M288.965 159.301H286.517V161.537H289.187V159.301H288.965Z" fill="#3F3D56"/>
<path d="M293.639 155.276H290.968V157.512H293.639V155.276Z" fill="#3F3D56"/>
<path d="M293.639 159.301H290.968V161.537H293.639V159.301Z" fill="#3F3D56"/>
<path d="M307.438 157.512V155.276H304.767V157.512H307.216H307.438Z" fill="#3F3D56"/>
<path d="M307.216 159.301H304.767V161.537H307.438V159.301H307.216Z" fill="#3F3D56"/>
<path d="M311.889 155.276H309.219V157.512H311.889V155.276Z" fill="#3F3D56"/>
<path d="M311.889 159.301H309.219V161.537H311.889V159.301Z" fill="#3F3D56"/>
<path d="M326.134 112.79V110.554H323.463V112.79H325.911H326.134Z" fill="#3F3D56"/>
<path d="M325.911 114.579H323.463V116.815H326.134V114.579H325.911Z" fill="#3F3D56"/>
<path d="M330.585 110.554H327.915V112.79H330.585V110.554Z" fill="#3F3D56"/>
<path d="M330.585 114.579H327.915V116.815H330.585V114.579Z" fill="#3F3D56"/>
<path d="M326.134 125.313V123.076H323.463V125.313H325.911H326.134Z" fill="#3F3D56"/>
<path d="M325.911 127.102H323.463V129.338H326.134V127.102H325.911Z" fill="#3F3D56"/>
<path d="M330.585 123.076H327.915V125.313H330.585V123.076Z" fill="#3F3D56"/>
<path d="M330.585 127.101H327.915V129.337H330.585V127.101Z" fill="#3F3D56"/>
<path d="M326.134 137.835V135.598H323.463V137.835H325.911H326.134Z" fill="#3F3D56"/>
<path d="M325.911 139.624H323.463V141.859H326.134V139.624H325.911Z" fill="#3F3D56"/>
<path d="M330.585 135.599H327.915V137.835H330.585V135.599Z" fill="#3F3D56"/>
<path d="M330.585 139.624H327.915V141.86H330.585V139.624Z" fill="#3F3D56"/>
<path d="M326.134 150.357V148.121H323.463V150.357H325.911H326.134Z" fill="#3F3D56"/>
<path d="M325.911 152.146H323.463V154.382H326.134V152.146H325.911Z" fill="#3F3D56"/>
<path d="M330.585 148.121H327.915V150.357H330.585V148.121Z" fill="#3F3D56"/>
<path d="M330.585 152.146H327.915V154.382H330.585V152.146Z" fill="#3F3D56"/>
<path d="M312.335 112.79H286.517V118.157H312.335V112.79Z" fill="#3F3D56"/>
<path d="M312.335 123.524H286.517V128.89H312.335V123.524Z" fill="#3F3D56"/>
<path d="M312.335 134.257H286.517V139.623H312.335V134.257Z" fill="#3F3D56"/>
<path d="M312.335 144.99H286.517V150.357H312.335V144.99Z" fill="#3F3D56"/>
<path d="M360 167.351H-7V168H360V167.351Z" fill="#3F3D56"/>
<path d="M74.9859 141.733H74.3403V167.351H74.9859V141.733Z" fill="#3F3D56"/>
<path d="M80.9437 144.997C80.9848 153.956 74.7115 161.247 74.7115 161.247C74.7115 161.247 68.3716 154.014 68.3305 145.056C68.2894 136.097 74.5627 128.806 74.5627 128.806C74.5627 128.806 80.9026 136.039 80.9437 144.997Z" fill="#F5B111"/>
<path d="M139.542 141.733H138.896V167.351H139.542V141.733Z" fill="#3F3D56"/>
<path d="M145.5 144.997C145.541 153.956 139.267 161.247 139.267 161.247C139.267 161.247 132.928 154.014 132.886 145.056C132.845 136.097 139.119 128.806 139.119 128.806C139.119 128.806 145.458 136.039 145.5 144.997Z" fill="#F5B111"/>
<path d="M268.331 141.733H267.685V167.351H268.331V141.733Z" fill="#3F3D56"/>
<path d="M274.288 144.997C274.33 153.956 268.056 161.247 268.056 161.247C268.056 161.247 261.716 154.014 261.675 145.056C261.634 136.097 267.907 128.806 267.907 128.806C267.907 128.806 274.247 136.039 274.288 144.997Z" fill="#F5B111"/>
<path d="M182.633 55.7939C189.407 55.7939 194.898 54.5525 194.898 53.0212C194.898 51.4899 189.407 50.2485 182.633 50.2485C175.859 50.2485 170.367 51.4899 170.367 53.0212C170.367 54.5525 175.859 55.7939 182.633 55.7939Z" fill="#F5B111"/>
<path d="M196.512 14.2687C196.512 22.1491 182.31 44.4276 182.31 44.4276C182.31 44.4276 168.108 22.1491 168.108 14.2687C168.108 10.4844 169.604 6.85511 172.267 4.17921C174.931 1.50331 178.543 0 182.31 0C186.077 0 189.689 1.50331 192.352 4.17921C195.016 6.85511 196.512 10.4844 196.512 14.2687Z" fill="#F5B111"/>
<path d="M182.31 22.3758C186.767 22.3758 190.379 18.7461 190.379 14.2686C190.379 9.7911 186.767 6.16138 182.31 6.16138C177.853 6.16138 174.24 9.7911 174.24 14.2686C174.24 18.7461 177.853 22.3758 182.31 22.3758Z" fill="#F2F2F2"/>
</g>
<defs>
<clipPath id="clip0">
<rect width="367" height="168" fill="white" transform="translate(-7)"/>
</clipPath>
</defs>
</svg>
