<svg width="120" height="120" viewBox="0 0 120 120" fill="none" xmlns="http://www.w3.org/2000/svg">
<circle cx="60" cy="60" r="60" fill="#F2F2F2"/>
<path d="M60.549 117.211C72.9822 117.231 85.1462 113.591 95.5242 106.744C93.1794 93.9299 84.2563 93.1998 84.2563 93.1998H35.05C35.05 93.1998 26.6298 93.8908 24 105.678C34.6997 113.205 47.4674 117.233 60.549 117.211Z" fill="#F5B111"/>
<path d="M59.8727 82.7012C76.8345 82.7012 90.5847 68.9509 90.5847 51.9891C90.5847 35.0273 76.8345 21.2771 59.8727 21.2771C42.9109 21.2771 29.1606 35.0273 29.1606 51.9891C29.1606 68.9509 42.9109 82.7012 59.8727 82.7012Z" fill="#333333"/>
<path opacity="0.1" d="M49.9604 77.5701H69.6393V93.3135C69.6393 95.9224 68.6031 98.4245 66.7587 100.27C64.9142 102.115 62.4125 103.152 59.8036 103.153C57.194 103.153 54.6913 102.116 52.8461 100.271C51.0008 98.4257 49.9642 95.9231 49.9642 93.3135V77.5701H49.9604Z" fill="black"/>
<path d="M50.5846 76.8399H69.0229C69.1884 76.8399 69.3471 76.9056 69.4641 77.0226C69.5811 77.1397 69.6469 77.2984 69.6469 77.4638V92.5833C69.6471 93.8759 69.3927 95.1559 68.8981 96.3501C68.4035 97.5444 67.6784 98.6294 66.7643 99.5433C65.8502 100.457 64.765 101.182 63.5707 101.676C62.3764 102.171 61.0963 102.425 59.8038 102.425C57.1942 102.425 54.6915 101.388 52.8462 99.5427C51.001 97.6974 49.9644 95.1947 49.9644 92.5852V77.4638C49.9644 77.299 50.0296 77.1409 50.1458 77.024C50.262 76.9071 50.4197 76.8409 50.5846 76.8399Z" fill="#FDB797"/>
<path opacity="0.1" d="M49.9961 85.0012C56.3384 87.3707 63.3197 87.3899 69.6749 85.0552V82.634H49.9961V85.0012Z" fill="black"/>
<path d="M59.8726 86.318C75.4509 86.318 88.0796 73.6893 88.0796 58.111C88.0796 42.5326 75.4509 29.9039 59.8726 29.9039C44.2942 29.9039 31.6655 42.5326 31.6655 58.111C31.6655 73.6893 44.2942 86.318 59.8726 86.318Z" fill="#FDB797"/>
<path opacity="0.1" d="M39.7803 32.4537C39.7803 32.4537 51.6684 56.5838 85.2021 42.5706L77.3946 30.3286L63.5546 25.3615L39.7803 32.4537Z" fill="black"/>
<path d="M39.7803 32.0999C39.7803 32.0999 51.6684 56.23 85.2021 42.2131L77.3946 29.9711L63.5546 25.0039L39.7803 32.0999Z" fill="#333333"/>
<path d="M39.6762 30.4646C40.4778 27.9833 41.8632 25.7306 43.7159 23.8957C49.2642 18.4107 58.3605 17.2542 63.026 11C64.1434 12.7358 63.2793 15.4047 61.3497 16.1497C65.8197 16.1199 70.9992 15.7288 73.5265 12.0523C74.1511 13.5064 74.3502 15.1079 74.1007 16.6706C73.8511 18.2334 73.1631 19.6932 72.1167 20.8804C76.0781 21.0666 80.3115 23.7486 80.5611 27.7063C80.7324 30.3436 79.0711 32.8393 76.9125 34.3516C74.7539 35.8639 72.1241 36.5586 69.5446 37.1267C62.0128 38.7898 34.7612 45.7499 39.6762 30.4646Z" fill="#333333"/>
<path d="M31.6547 63.0056C33.104 63.0056 34.2789 60.8025 34.2789 58.0849C34.2789 55.3673 33.104 53.1643 31.6547 53.1643C30.2054 53.1643 29.0305 55.3673 29.0305 58.0849C29.0305 60.8025 30.2054 63.0056 31.6547 63.0056Z" fill="#FDB797"/>
<path d="M88.0759 63.0056C89.5252 63.0056 90.7001 60.8025 90.7001 58.0849C90.7001 55.3673 89.5252 53.1643 88.0759 53.1643C86.6266 53.1643 85.4517 55.3673 85.4517 58.0849C85.4517 60.8025 86.6266 63.0056 88.0759 63.0056Z" fill="#FDB797"/>
</svg>
