<svg width="63" height="11" viewBox="0 0 63 11" fill="none" xmlns="http://www.w3.org/2000/svg">
<g clip-path="url(#clip0)">
<path fill-rule="evenodd" clip-rule="evenodd" d="M18.8328 0.217033L20.2446 3.21429C20.2965 3.32751 20.4014 3.4074 20.5243 3.42728L23.6811 3.90791C23.8238 3.93558 23.9397 4.0395 23.9828 4.17834C24.0258 4.31719 23.989 4.46846 23.887 4.57202L21.6028 6.90505C21.5146 6.99651 21.4749 7.12435 21.4959 7.24967L22.0351 10.544C22.0646 10.6856 22.01 10.8315 21.8949 10.9191C21.7799 11.0067 21.6247 11.0205 21.496 10.9544L18.6725 9.39905C18.565 9.33942 18.4343 9.33942 18.3267 9.39905L15.5032 10.9544C15.3746 11.0205 15.2194 11.0067 15.1043 10.9191C14.9892 10.8315 14.9347 10.6856 14.9641 10.544L15.5033 7.24967C15.5243 7.12435 15.4847 6.99651 15.3965 6.90505L13.1122 4.57202C13.0102 4.46846 12.9734 4.31719 13.0165 4.17835C13.0595 4.03951 13.1755 3.93559 13.3182 3.90792L16.4749 3.42728C16.5979 3.4074 16.7028 3.32751 16.7547 3.2143L18.1664 0.217033C18.2247 0.0851033 18.3554 0 18.4996 0C18.6439 0 18.7745 0.0851033 18.8328 0.217033Z" fill="#F6AB27"/>
<path fill-rule="evenodd" clip-rule="evenodd" d="M19.9003 2.48638C18.9897 2.97323 18.149 3.58053 17.4006 4.29189C16.603 5.05545 15.9264 5.93608 15.3941 6.90344L13.1106 4.57258C13.0086 4.46896 12.9719 4.31761 13.0152 4.17878C13.0584 4.03995 13.1745 3.93618 13.3173 3.90879L16.4732 3.42707C16.596 3.40667 16.7009 3.32727 16.7539 3.21465L18.1649 0.216203C18.2239 0.0846593 18.3546 0 18.4987 0C18.6429 0 18.7736 0.0846593 18.8325 0.216203L19.9003 2.48638Z" fill="#F4CD1E"/>
</g>
<g clip-path="url(#clip1)">
<path fill-rule="evenodd" clip-rule="evenodd" d="M58.3025 0.217033L59.5859 3.21429C59.633 3.32751 59.7284 3.4074 59.8402 3.42728L62.71 3.90791C62.8397 3.93558 62.9451 4.0395 62.9842 4.17834C63.0234 4.31719 62.9899 4.46846 62.8972 4.57202L60.8206 6.90505C60.7404 6.99651 60.7044 7.12435 60.7234 7.24967L61.2136 10.544C61.2404 10.6856 61.1908 10.8315 61.0862 10.9191C60.9816 11.0067 60.8405 11.0205 60.7235 10.9544L58.1567 9.39905C58.0589 9.33942 57.9401 9.33942 57.8424 9.39905L55.2756 10.9544C55.1586 11.0205 55.0175 11.0067 54.9129 10.9191C54.8083 10.8315 54.7587 10.6856 54.7854 10.544L55.2756 7.24967C55.2947 7.12435 55.2587 6.99651 55.1785 6.90505L53.1019 4.57202C53.0092 4.46846 52.9757 4.31719 53.0149 4.17835C53.054 4.03951 53.1594 3.93559 53.2891 3.90792L56.1589 3.42728C56.2707 3.4074 56.3661 3.32751 56.4132 3.2143L57.6966 0.217033C57.7496 0.0851033 57.8684 0 57.9995 0C58.1307 0 58.2494 0.0851033 58.3025 0.217033Z" fill="#F5B111"/>
<path fill-rule="evenodd" clip-rule="evenodd" d="M59.2727 2.48638C58.445 2.97323 57.6806 3.58053 57.0003 4.29189C56.2752 5.05545 55.6601 5.93608 55.1762 6.90344L53.1003 4.57258C53.0076 4.46896 52.9742 4.31761 53.0135 4.17878C53.0528 4.03995 53.1584 3.93618 53.2882 3.90879L56.1572 3.42707C56.2688 3.40667 56.3642 3.32727 56.4124 3.21465L57.6951 0.216203C57.7487 0.0846593 57.8675 0 57.9986 0C58.1296 0 58.2484 0.0846593 58.302 0.216203L59.2727 2.48638Z" fill="#F5B111"/>
</g>
<g clip-path="url(#clip2)">
<path fill-rule="evenodd" clip-rule="evenodd" d="M44.1672 0.217033L42.7554 3.21429C42.7035 3.32751 42.5986 3.4074 42.4757 3.42728L39.3189 3.90791C39.1762 3.93558 39.0603 4.0395 39.0172 4.17834C38.9742 4.31719 39.011 4.46846 39.113 4.57202L41.3972 6.90505C41.4854 6.99651 41.5251 7.12435 41.5041 7.24967L40.9649 10.544C40.9354 10.6856 40.99 10.8315 41.1051 10.9191C41.2201 11.0067 41.3753 11.0205 41.504 10.9544L44.3275 9.39905C44.435 9.33942 44.5657 9.33942 44.6733 9.39905L47.4968 10.9544C47.6254 11.0205 47.7806 11.0067 47.8957 10.9191C48.0108 10.8315 48.0653 10.6856 48.0359 10.544L47.4967 7.24967C47.4757 7.12435 47.5153 6.99651 47.6035 6.90505L49.8878 4.57202C49.9898 4.46846 50.0266 4.31719 49.9835 4.17835C49.9405 4.03951 49.8245 3.93559 49.6818 3.90792L46.5251 3.42728C46.4021 3.4074 46.2972 3.32751 46.2453 3.2143L44.8336 0.217033C44.7753 0.0851033 44.6446 0 44.5004 0C44.3561 0 44.2255 0.0851033 44.1672 0.217033Z" fill="#F6AB27"/>
<path fill-rule="evenodd" clip-rule="evenodd" d="M42.5001 3.5C43.4106 3.98685 43.4191 6.35458 44.1675 7.06595C44.9651 7.82951 47.0736 5.93608 47.6059 6.90344L49.8894 4.57258C49.9914 4.46896 50.0281 4.31761 49.9848 4.17878C49.9416 4.03995 49.8255 3.93618 49.6827 3.90879L46.5268 3.42707C46.404 3.40667 46.2991 3.32727 46.2461 3.21465L44.8351 0.216203C44.7761 0.0846593 44.6454 0 44.5013 0C44.3571 0 44.2264 0.0846593 44.1675 0.216203L42.5001 3.5Z" fill="#F5B111"/>
</g>
<g clip-path="url(#clip3)">
<path fill-rule="evenodd" clip-rule="evenodd" d="M31.8328 0.217033L33.2446 3.21429C33.2965 3.32751 33.4014 3.4074 33.5243 3.42728L36.6811 3.90791C36.8238 3.93558 36.9397 4.0395 36.9828 4.17834C37.0258 4.31719 36.989 4.46846 36.887 4.57202L34.6028 6.90505C34.5146 6.99651 34.4749 7.12435 34.4959 7.24967L35.0351 10.544C35.0646 10.6856 35.01 10.8315 34.8949 10.9191C34.7799 11.0067 34.6247 11.0205 34.496 10.9544L31.6725 9.39905C31.565 9.33942 31.4343 9.33942 31.3267 9.39905L28.5032 10.9544C28.3746 11.0205 28.2194 11.0067 28.1043 10.9191C27.9892 10.8315 27.9347 10.6856 27.9641 10.544L28.5033 7.24967C28.5243 7.12435 28.4847 6.99651 28.3965 6.90505L26.1122 4.57202C26.0102 4.46846 25.9734 4.31719 26.0165 4.17835C26.0595 4.03951 26.1755 3.93559 26.3182 3.90792L29.4749 3.42728C29.5979 3.4074 29.7028 3.32751 29.7547 3.2143L31.1664 0.217033C31.2247 0.0851033 31.3554 0 31.4996 0C31.6439 0 31.7745 0.0851033 31.8328 0.217033Z" fill="#F6AB27"/>
<path fill-rule="evenodd" clip-rule="evenodd" d="M32.9003 2.48638C31.9897 2.97323 31.149 3.58053 30.4006 4.29189C29.603 5.05545 28.9264 5.93608 28.3941 6.90344L26.1106 4.57258C26.0086 4.46896 25.9719 4.31761 26.0152 4.17878C26.0584 4.03995 26.1745 3.93618 26.3173 3.90879L29.4732 3.42707C29.596 3.40667 29.7009 3.32727 29.7539 3.21465L31.1649 0.216203C31.2239 0.0846593 31.3546 0 31.4987 0C31.6429 0 31.7736 0.0846593 31.8325 0.216203L32.9003 2.48638Z" fill="#F4CD1E"/>
</g>
<g clip-path="url(#clip4)">
<path fill-rule="evenodd" clip-rule="evenodd" d="M5.83295 0.217033L7.24468 3.21429C7.29657 3.32751 7.40151 3.4074 7.52445 3.42728L10.6812 3.90791C10.8239 3.93558 10.9398 4.0395 10.9829 4.17834C11.0259 4.31719 10.9891 4.46846 10.8871 4.57202L8.60289 6.90505C8.51469 6.99651 8.47504 7.12435 8.49602 7.24967L9.03526 10.544C9.06468 10.6856 9.01014 10.8315 8.89506 10.9191C8.77997 11.0067 8.6248 11.0205 8.49612 10.9544L5.67265 9.39905C5.56509 9.33942 5.43439 9.33942 5.32683 9.39905L2.50336 10.9544C2.37468 11.0205 2.21951 11.0067 2.10442 10.9191C1.98934 10.8315 1.93481 10.6856 1.96422 10.544L2.50346 7.24967C2.52444 7.12435 2.48479 6.99651 2.39659 6.90505L0.112358 4.57202C0.0103479 4.46846 -0.0264431 4.31719 0.0166108 4.17835C0.0596647 4.03951 0.175586 3.93559 0.318291 3.90792L3.47503 3.42728C3.59797 3.4074 3.70291 3.32751 3.7548 3.2143L5.16654 0.217033C5.22484 0.0851033 5.3555 0 5.49974 0C5.64398 0 5.77464 0.0851033 5.83295 0.217033Z" fill="#F6AB27"/>
<path fill-rule="evenodd" clip-rule="evenodd" d="M6.90038 2.48638C5.98986 2.97323 5.14908 3.58053 4.40072 4.29189C3.60313 5.05545 2.92651 5.93608 2.39417 6.90344L0.110742 4.57258C0.00873655 4.46896 -0.0279555 4.31761 0.0152736 4.17878C0.0585027 4.03995 0.174635 3.93618 0.317436 3.90879L3.47332 3.42707C3.5961 3.40667 3.70103 3.32727 3.75401 3.21465L5.16504 0.216203C5.22398 0.0846593 5.35468 0 5.49883 0C5.64297 0 5.77368 0.0846593 5.83262 0.216203L6.90038 2.48638Z" fill="#F4CD1E"/>
</g>
<defs>
<clipPath id="clip0">
<rect width="11" height="11" fill="white" transform="translate(13)"/>
</clipPath>
<clipPath id="clip1">
<rect width="10" height="11" fill="white" transform="translate(53)"/>
</clipPath>
<clipPath id="clip2">
<rect width="11" height="11" fill="white" transform="matrix(-1 0 0 1 50 0)"/>
</clipPath>
<clipPath id="clip3">
<rect width="11" height="11" fill="white" transform="translate(26)"/>
</clipPath>
<clipPath id="clip4">
<rect width="11" height="11" fill="white"/>
</clipPath>
</defs>
</svg>
